<svg id="Layer_1" data-name="Layer 1" xmlns="http://www.w3.org/2000/svg" viewBox="0 0 400 400"><defs><style>.cls-1{fill:#f1f1f2;}</style></defs><title>iconosSIMAR</title><path class="cls-1" d="M267.08,245.11a31.72,31.72,0,0,0-9.38-17.42,63.66,63.66,0,0,1-6.25-6.79,29,29,0,0,1-6-17.11c-.12-4.76,0-9.53-.06-14.3,0-4.45.21-8.9-.39-13.34a43.35,43.35,0,0,0-3.94-13.38c-.83-1.71-1.86-3.32-2.8-5l-.82-1.11a6.39,6.39,0,0,0-.5-.93,44.36,44.36,0,0,0-21.8-16.22,2,2,0,0,1-1.57-1.87,13.2,13.2,0,0,0-17.67-10.31,12.82,12.82,0,0,0-8.58,11,.91.91,0,0,1-.69.91,44.94,44.94,0,0,0-31.05,42.22c-.07,3.59,0,7.18,0,10.77,0,4.53,0,9.07-.22,13.59a28,28,0,0,1-4,12.36,37.15,37.15,0,0,1-6.93,8.37,36.8,36.8,0,0,0-7.22,9,32,32,0,0,0-3.66,11.85c-.1,1-.1,2-.15,3H267.66C267.47,248.63,267.39,246.85,267.08,245.11ZM150.21,246l-1.26-.6,1.26.6Zm41.69-43.34h0l.4,0Z"/><path class="cls-1" d="M191.58,271.09c6.83,3.6,13.6,3,19.77-1.67,4.67-3.52,6.89-8.42,7-14.29H181.91C182.27,262.27,185.29,267.79,191.58,271.09Z"/><path class="cls-1" d="M90.29,285.55a10.57,10.57,0,0,1-8.73-4.61,144,144,0,0,1-.49-161.25,10.55,10.55,0,0,1,17.5,11.78A122.88,122.88,0,0,0,99,269.05a10.56,10.56,0,0,1-8.7,16.5Z"/><path class="cls-1" d="M79.06,338.06a10.51,10.51,0,0,1-6.92-2.59A179.58,179.58,0,0,1,72,64.54a10.55,10.55,0,1,1,13.86,15.9A158.5,158.5,0,0,0,86,319.56a10.55,10.55,0,0,1-6.93,18.5Z"/><path class="cls-1" d="M90.29,285.55a10.57,10.57,0,0,1-8.73-4.61,144,144,0,0,1-.49-161.25,10.55,10.55,0,0,1,17.5,11.78A122.88,122.88,0,0,0,99,269.05a10.56,10.56,0,0,1-8.7,16.5Z"/><path class="cls-1" d="M309.71,285.55a10.56,10.56,0,0,1-8.7-16.5,122.88,122.88,0,0,0,.42-137.58,10.55,10.55,0,0,1,17.5-11.78,144,144,0,0,1-.49,161.25A10.57,10.57,0,0,1,309.71,285.55Z"/><path class="cls-1" d="M320.94,338.06a10.55,10.55,0,0,1-6.93-18.5,158.5,158.5,0,0,0,.11-239.12A10.55,10.55,0,1,1,328,64.54a179.58,179.58,0,0,1-.12,270.93A10.51,10.51,0,0,1,320.94,338.06Z"/><path class="cls-1" d="M309.71,285.55a10.56,10.56,0,0,1-8.7-16.5,122.88,122.88,0,0,0,.42-137.58,10.55,10.55,0,0,1,17.5-11.78,144,144,0,0,1-.49,161.25A10.57,10.57,0,0,1,309.71,285.55Z"/></svg>