<svg id="Layer_1" data-name="Layer 1" xmlns="http://www.w3.org/2000/svg" viewBox="0 0 400 400"><defs><style>.cls-1{fill:#f1f1f2;}</style></defs><title>iconosSIMAR</title><path class="cls-1" d="M59.09,277.55a290.11,290.11,0,0,0,43.6,5.09c7.3.28,14.61.23,21.89-.17a202.44,202.44,0,0,0,21.71-2.27c14.46-2.42,29-5.16,43.48-7.68s29.18-4.77,43.91-6.38c7.36-.83,14.77-1.33,22.18-1.69s14.85-.51,22.27-.24c29.36.7,58.73,6.74,85.34,18.77a214.86,214.86,0,0,0,26.14-37.12c-33.68-8.4-106.82-23.3-170.72-13.41-66,10.22-133.2,24.15-208.5,0a213.74,213.74,0,0,0,23.75,39.25C42.38,274,50.71,275.93,59.09,277.55Z"/><path class="cls-1" d="M122.34,324.17A315.37,315.37,0,0,0,163,318.88c13.53-2.42,27.09-4.88,40.71-7.15s27.36-4,41.17-5.24l10.37-.74,10.4-.38c1.73-.08,3.47-.13,5.2-.09l5.21,0,5.2.06c1.74,0,3.47.19,5.2.27a229.48,229.48,0,0,1,41.19,5.64l4.42,1.12a215.41,215.41,0,0,0,31.38-29.36c-3.18-1.06-6.32-2.19-9.54-3.1-3.5-1.13-7.06-2.08-10.6-3-7.12-1.82-14.29-3.38-21.51-4.58a266.67,266.67,0,0,0-43.69-3.47c-29.27,0-58.36,4.3-87.34,9.22-14.52,2.44-29,5.09-43.67,7.18a211.86,211.86,0,0,1-44.58,1.51A265,265,0,0,1,58.56,280c-7.2-1.73-14.33-3.7-21.36-6l-1.72-.58A215.36,215.36,0,0,0,91,323.63,220.25,220.25,0,0,0,122.34,324.17Z"/><path class="cls-1" d="M327,314.05c-3.34-.75-6.75-1.1-10.14-1.58s-6.76-1-10.18-1.2l-10.21-.82c-3.41-.17-6.83-.21-10.24-.33a337.38,337.38,0,0,0-40.94,1.77q-20.43,2-40.74,5.49c-13.57,2.16-27.11,4.59-40.72,6.84s-27.46,4.18-41.36,4.4a198.81,198.81,0,0,1-24.77-.93A210.85,210.85,0,0,0,203.41,356h0a211.25,211.25,0,0,0,125.87-41.54Z"/><path class="cls-1" d="M171.19,108.87a25.68,25.68,0,0,0-47.87,16.76l-22.64,10.52,6,13,23-10.66a25.73,25.73,0,0,0,38.94-1.16L191.85,147l5.48-13.23-23.21-9.63A25.51,25.51,0,0,0,171.19,108.87Zm-16.75,23a12.24,12.24,0,1,1,5.9-7.28A12.16,12.16,0,0,1,154.44,131.9Z"/><path class="cls-1" d="M264.41,164.69a7.37,7.37,0,0,0-2.83.57l.19-.54-34.44-12.29L226,156.12l32.45,11.57a7.45,7.45,0,1,0,6-3Zm0,11a3.56,3.56,0,1,1,3.55-3.56A3.57,3.57,0,0,1,264.41,175.72Z"/><path class="cls-1" d="M362.74,111.34a7.48,7.48,0,0,0-7.47,7.47,7.18,7.18,0,0,0,.37,2.19l-85.9,45,1.82,3.47,86.18-45.17a7.38,7.38,0,0,0,5,2,7.47,7.47,0,0,0,0-14.94Zm0,11a3.56,3.56,0,1,1,3.56-3.56A3.57,3.57,0,0,1,362.74,122.37Z"/><path class="cls-1" d="M35.17,167.91a7.47,7.47,0,1,0,7.47,7.47A7.48,7.48,0,0,0,35.17,167.91Zm0,11a3.56,3.56,0,1,1,3.56-3.55A3.56,3.56,0,0,1,35.17,178.93Z"/><rect class="cls-1" x="40.11" y="162.12" width="34.92" height="3.91" transform="translate(-63.77 39.52) rotate(-24.92)"/><path class="cls-1" d="M149.32,198a74.15,74.15,0,1,1,27-5.1h0A73.87,73.87,0,0,1,149.32,198Zm-.07-132.61a58.44,58.44,0,1,0,21.29,112.86h0A58.46,58.46,0,0,0,149.25,65.37Z"/><rect class="cls-1" x="262.73" y="19.06" width="27.48" height="109.91" rx="9.44" ry="9.44" transform="translate(244.6 -210.41) rotate(68.62)"/></svg>