<?xml version="1.0" encoding="utf-8"?>
<!-- Generator: Adobe Illustrator 23.0.6, SVG Export Plug-In . SVG Version: 6.00 Build 0)  -->
<svg version="1.1" id="Capa_1" xmlns="http://www.w3.org/2000/svg" xmlns:xlink="http://www.w3.org/1999/xlink" x="0px" y="0px"
	 viewBox="0 0 164.61 162.61" style="enable-background:new 0 0 164.61 162.61;" xml:space="preserve">
<style type="text/css">
	.st0{fill-rule:evenodd;clip-rule:evenodd;fill:#FFFFFF;}
</style>
<g>
	<g>
		<g>
			<path class="st0" d="M110.04,29.46c1.1,0,2.01,0.77,2.01,1.67c0,0.93-0.9,1.66-2.01,1.66c-1.11,0-1.99-0.73-1.99-1.66
				C108.05,30.23,108.93,29.46,110.04,29.46 M104.92,24.89c1.65-0.99,6.51-1.05,8.97-0.19c2.49,0.86,5.97,2.16,7.42,3.23
				c1.38,1.1,5.9,5.06,6.19,6.1c0.28,1.04,0.47,2.8,0,3.87c-0.47,1.05-1.37,2.07-2.36,2.88c-1.03,0.81-5.8,2.38-7.06,2.54
				c-1.2,0.12-4.77,0.8-5.95,0.66c-1.18-0.12-8.15-3.29-8.64-3.2c-0.49,0.1-1.67,2.65-1.67,2.65s-3.86-2.15-3.65-6.77
				c0.25-4.68,1.62-5.87,2.1-6.49c0.46-0.6,1.75-1.04,2.13-1.84C102.78,27.51,103.28,25.89,104.92,24.89z"/>
			<path class="st0" d="M125.12,43.05c1.76-1.26,3.05-3.35,3.38-3.33c0.27-0.02,2.33,1.47,4.22,3.61c1.64,1.85,3.09,4.25,4.18,5.86
				c2.36,3.4,6.64,10.65,7.57,14.83c0.51,2.29,1.53,11.45,0.57,19.26c-0.75,5.87-1.13,11.89-1.26,12.15
				c-0.28,0.63-1.16,2.64-2.23,1.91c-8.61-5.97-16.39-15.65-21.2-24.8c-1.17-2.23-2.18-4.39-3.17-6.38
				c-1.93-3.95-3.34-7.56-4.37-10.42c-1.33-3.63-1.78-6.12-1.79-6.9c0-1.84,0.46-3.01,0.76-3.14c0.25-0.12,0.89,0.08,1.88,0.18
				c1.1,0.12,2.3,0.12,3.28,0.09C120.91,45.58,121.75,45.47,125.12,43.05"/>
			<path class="st0" d="M126.69,86.2c0.63-0.23,1.19,0.99,2.07,1.8c0.87,0.82,5.76,5.46,6.76,6.69c1.04,1.22,2.16,2.61,2.73,4.14
				c0.54,1.55,0.7,2.67-0.43,7.8c-1.21,5.12-6.63,27.73-9.76,37.99c-3.14,10.26-3.47,12.58-3.72,13.21
				c-0.28,0.67-0.5,1.55-1.78,1.41c-1.35-0.09-1.73-0.56-1.93-2.1c-0.22-1.52-0.5-7.5,0-12.93c0.44-5.41,1.93-14.91,1.93-20.39
				c0-5.47-0.76-8.21-0.57-12.06c0.15-3.87,1.86-15.2,2.7-18.6C125.44,89.8,126.03,86.41,126.69,86.2"/>
			<path class="st0" d="M88.25,47.65c0.05-1.86,1.21-2.14,3.53-2.4c2.36-0.24,4.42,0.06,5.62,0.52c1.16,0.44,4.94,2.14,5.69,2.68
				c0.8,0.52,3.63,3.43,4.85,5.01c1.21,1.59,3.95,5.04,5.24,8.8c1.35,3.73,1.41,5.28,1.35,5.71c-0.06,0.45-2.2,3.77-3.37,4.83
				c-1.13,1.04-4.05,5.33-10.96,4.81c-6.9-0.54-10.14-5.91-11.9-7.1c-1.75-1.16-2.03-1.74-3.9-2.49c-1.88-0.73-2.08-1.47-1.81-2.51
				c0.28-1.08,1.09-2.09,3.35-1.99c2.2,0.12,4.84,0.73,4.84,0.73s-0.65-1.08-2.2-1.52c-1.57-0.45-4.52-0.59-6.43-1.12
				c-1.92-0.54-1.49-1.64-1.45-1.94c0.03-0.35,0.06-2.09,2.61-2.34c2.49-0.25,8.04-0.35,8.04-0.35s-7.28-1.3-8.09-1.56
				c-0.82-0.26-1.27-0.94-1.18-1.8c0.08-0.85,0.36-2.15,2.04-2.41c1.67-0.31,2.89-0.57,4.66-0.46c1.82,0.11,6.82,1,6.82,1
				s0.13-0.67-1.67-1.36C92.11,49.7,88.23,49.5,88.25,47.65"/>
			<path class="st0" d="M95.37,82.48c-0.17-1.55,0.05-2.09,0.41-2.26c0.31-0.17,5.15-1.23,7.03-1.47c1.83-0.27,5.71-0.62,6.32-1.05
				c0.6-0.39,1.44-0.56,2.45-1.5c0.95-0.91,3.63-3.62,4.81-3.88c1.1-0.26,1.99-0.48,2.88,0.91c0.9,1.39,1.13,2.45,0.71,3.58
				c-0.39,1.12-2.3,3.93-5.95,6.03c-3.63,2.12-4.75,2.33-6.13,2.36c-1.37,0.07-7.49,0.77-9.82,0.32
				C95.72,85.08,95.53,84,95.37,82.48"/>
			<path class="st0" d="M97.82,87.59c2.31,0,9.65-0.15,10.8-0.34c1.17-0.19,3.72-0.74,5.5-1.95c1.75-1.21,5.65-3.95,6.22-3.86
				c0.51,0.1,2.23,0.6,2.32,2.08c0.12,1.47,0.08,3.85-2.76,6.66c-2.86,2.78-8.08,3.42-11.2,4c-3.15,0.61-6.11,0.96-7.19,0.85
				c-1.11-0.05-5.41-0.61-5.64-2.35C95.65,91.02,95.48,87.59,97.82,87.59"/>
			<path class="st0" d="M120.44,94.04c0.46-0.21,0.32,8.49-0.8,13.57c-1.14,5.11-4.98,20.42-5.65,21.55
				c-0.63,1.17-5.91,3.84-7.56,4.62c-1.63,0.76-5.66,2.15-5.92,2.17c-0.28,0.03-2.22,0.94-2.13-1.51c0.09-2.44,0.54-14.1-0.16-22.15
				c-0.73-8.04-0.88-11.37-1-12.37c-0.12-0.98-0.29-2.67,1.39-2.73c1.68-0.08,6.71,0.02,10.44-0.57
				C112.8,96.01,120,94.23,120.44,94.04"/>
			<path class="st0" d="M46.69,110.66c0.21,0,1.04,1.19,1.39,1.69c0.39,0.54,7.38,10.15,17.33,12.24
				c9.94,2.12,13.28-0.32,14.31-1.55c1.04-1.23,3.26-7.33,3.77-8.92c0.47-1.62,1.7-3.28,4.14-3.87c0.94-0.23,2.29-0.53,3.49-0.6
				c2.08-0.13,4.04,0.22,4.73,0.76c1.09,0.91,1.19,8.48,0.72,12.63c-0.51,4.17-1.53,12.12-1.77,12.67
				c-0.21,0.56-4.31,2.68-12.84,2.87c-8.55,0.22-23.99-2.57-32.22-6.97c-8.22-4.36-11.62-7.56-14.88-10.83
				c-3.26-3.28-2.58-2.96-2.32-3.75c0.23-0.79,0.9-2.19,1.37-2.34c0.53-0.11,3.15-0.31,5.18-0.76c2.04-0.44,4.97-1.05,6.01-2.08
				C46.12,110.84,46.46,110.67,46.69,110.66"/>
			<path class="st0" d="M134.77,133.03c0.84,0.48,3.32-0.75,7.03-4.44c3.71-3.69,4.98-5.68,6.42-7.76
				c1.41-2.09,7.99-13.67,10.37-24.72c2.38-11.03,2.26-14.34,2.29-19.41c0.09-5.07-2.09-20.68-5.44-28.33
				c-3.37-7.59-6.41-16.19-13.23-22.38c-6.79-6.21-19.16-15.15-34.09-19.04C93.19,3.06,89.28,3.53,84.48,3.36
				C79.75,3.2,67.19,4.12,59.36,5.69c-7.83,1.54-10.3,2.6-12.46,3.14c-2.16,0.52-23.44,9.99-32.58,25.45
				C5.23,49.75,3.28,68.47,3.81,78.17c0.52,9.71,2.91,36.36,16.57,51.68c13.63,15.29,30.32,22.03,57.26,23.45
				c26.96,1.4,40.76-9.43,40.76-9.43l1.67-13.2c0,0-18.53,10.16-38.84,10.52c-20.3,0.38-39.05-7.38-50.38-20.16
				c-11.36-12.76-15.18-37.61-13.38-55.18c1.8-17.53,9.56-35.3,33.74-44.51c24.22-9.16,53.33-1.7,61.23,0.54
				c7.95,2.25,30.19,16.71,34.67,43.46c4.46,26.72-4.2,38.74-6.3,43.67c-2.09,4.93-4.92,10-5.48,14.25
				C134.81,127.54,133.92,132.53,134.77,133.03"/>
			<path class="st0" d="M34.84,93.7c1.71-0.17,4.5,1.53,4.59,3.1c0.1,1.57-0.67,3.33-2.69,3.71c-2.04,0.34-5.25,0.41-6.02-1.54
				c-0.77-1.93,0-3.74,1.22-4.39C33.15,93.89,33.11,93.87,34.84,93.7 M34,92.53c3.73,0,7.88,2.93,7.88,6.38
				c0.03,3.44-2.07,5.63-5.45,5.36c-3.38-0.3-7.94-1.87-7.62-6.67C29.13,92.8,34,92.53,34,92.53z M61.29,74.93
				c2.25-2.06,5.98-1.37,6.22-1.15c0.11,0.11-0.13,1.04-0.71,2.07c-0.55,0.93-1.42,1.9-2.4,2.82c-2.02,1.95-5.05,2.28-5.52,1.81
				C58.38,79.98,59.03,76.99,61.29,74.93z M83.21,81.1c0.51,0.44-0.29,1.85-0.63,2.06c-0.23,0.2-1.38,1.17-2.26,0.42
				c-0.87-0.74-0.42-1.68,0.83-2.34C82.38,80.62,82.76,80.66,83.21,81.1z M76.8,19.63c1.46-0.04,4.14,6.02,4.53,9.51
				c0.41,3.5,1.41,8.69-1.08,15.45c-2.44,6.73-6.27,12.01-7.47,12.18c-1.24,0.17-2.43,0.37-2.43,0.37s-4.91-4.14-10.25-3.69
				c-5.36,0.45-9.27,2.14-13.89,6.13c-4.63,4.03-6.68,8.02-7.22,11.07c-0.54,3.05-0.37,8.2,0.86,10.86c1.24,2.71,1.76,2.3,1.76,2.3
				s0.87,0.23,1.01-0.09c0.14-0.33-2.57-8.38-0.84-13.45c1.72-5.03,3.82-9.55,12.86-13.41c8.24-3.49,11.88,1.64,14.14,3.28
				c2.15,1.58,4.02,2.73,5.48,3.66c1.44,0.91,9.69,6.47,13.14,10.48c3.48,4.02,3.88,4.26,3.48,5.76c-0.45,1.45-2.41,3.21-2.3,4.25
				c0.07,1.06,1.86,3.57,1.05,5.15c-0.81,1.59-1.44,2.26-3.64,3.32c-2.25,1.1-3.11,2.57-3.05,2.92c0.04,0.3,1.02,0.22,1.87-0.06
				c0.89-0.29,1.61-1.01,3.27-0.81c1.6,0.18,3.63,0.43,4.24,4.23c0.65,3.77,0.65,5.64-0.68,7.33c-1.3,1.68-3,1.84-4.68,2.46
				c-1.63,0.62-3.4,0.69-4.16,1.53c-0.77,0.87-2.41,4.15-3.05,7.33c-0.64,3.17-2.09,4.82-2.53,5.13c-0.46,0.35-9.51,0.73-13.84-0.91
				c-4.37-1.62-6.38-3.24-10.18-7c-3.8-3.77-5.42-6.09-5.42-6.09h-1.7c0,0-3.96,4.26-9.27,3.41c-5.3-0.87-14.28-4.1-14.16-15.02
				c0.12-10.92,7.47-11.93,7.82-12.61c0.37-0.69,0.52-1.67-1.01-1.64c-1.53,0.06-3.88,0.78-5.34,1.73c-1.46,0.96-4.17,3.12-4.39,1.1
				c-0.25-1.99,0.37-7.41,5.55-9.96c5.16-2.56,6.37-2.04,6.28-3.97c-0.07-1.9-4.02-1.09-5.27-0.59c-1.22,0.5-4.2,2-4.44,2.33
				c-0.22,0.31-2.21,1.81-2.21-0.39c0-2.26,0.75-6.58,5.13-9.17c4.34-2.6,8.96-1.49,9.08-3.09c0.11-1.61-1.82-2.15-3.49-1.95
				c-1.71,0.17-6.38,1.68-7.28,2.44c-0.87,0.77-2.4,0.9-1.98-1.32c0.38-2.23,2.43-7.52,7.81-9.04c5.34-1.59,9.63,1.27,10.11,0.31
				c0.51-0.96,0.1-2.78-2.14-3.78c-2.23-0.98-3.71-1.45-6.94-0.45c-3.24,1-3.93,0.51-3.4-0.74c0.55-1.2,2.22-7.6,9.9-7.64
				c7.67-0.03,9.62,7.05,11.41,6.57c1.84-0.51-0.73-6.29-2.23-8.64c-1.47-2.39-6.65-6.11-4.69-7.51c1.92-1.42,6.71-0.87,9.69,1.04
				c3,1.9,3,2.28,3.77,3.39c0.79,1.07,3.72,7.72,4.37,7.48c0.63-0.23,0.91-4.14,0.36-6.91c-0.53-2.8-4.21-8.91-5.36-9.99
				c-1.13-1.04-0.88-1.95,1.14-2.06c1.99-0.15,7.57,0.51,10.67,4.4c3.07,3.84,3.23,10.59,2.82,11.53c-0.33,0.97-0.2,3.46,1.16,1.98
				c1.35-1.51,4.25-6.29,4.95-11.01C75.21,24.32,75.34,19.66,76.8,19.63z"/>
		</g>
	</g>
</g>
</svg>
