<?xml version="1.0" encoding="utf-8"?>
<!-- Generator: Adobe Illustrator 23.0.6, SVG Export Plug-In . SVG Version: 6.00 Build 0)  -->
<svg version="1.1" id="Capa_1" xmlns="http://www.w3.org/2000/svg" xmlns:xlink="http://www.w3.org/1999/xlink" x="0px" y="0px"
	 viewBox="0 0 463.89 269.92" style="enable-background:new 0 0 463.89 269.92;" xml:space="preserve">
<style type="text/css">
	.st0{fill:#FFFFFF;}
	.st1{fill-rule:evenodd;clip-rule:evenodd;fill:#FFFFFF;}
</style>
<g>
	<g>
		<path class="st0" d="M51.83,245.59c0.71-2.4,1.77-6.03,2.93-11c1.6,0,6.75,0.18,8.34,0.35c0.27,3.46,0.36,9.49,0.36,12.78
			l-1.24,2.48c-5.06,3.37-13.13,6.12-22.36,6.12c-19.61,0-31.94-12.07-31.94-31.76c0-19.97,15.44-33.36,33.9-33.36
			c8.25,0,15.26,2.22,21.12,5.23l1.33,2.4c-0.8,4.61-2.04,11.09-2.93,15.53c-1.69,0-5.86-0.09-7.72-0.36
			c-0.71-5.32-1.69-9.76-2.48-11.98c-2.48-1.6-6.3-2.84-11-2.84c-4.79,0-8.96,1.33-11.8,3.28c-4.08,4.79-6.92,12.51-6.92,21.3
			c0,14.55,7.54,24.23,19.88,24.23C46.24,247.99,49.52,247.02,51.83,245.59z"/>
		<path class="st0" d="M72.24,225.63c0-20.5,14.73-34.43,32.65-34.43c17.48,0,29.64,11.89,29.64,30.7
			c0,20.14-13.75,34.43-31.77,34.43C84.66,256.33,72.24,244.44,72.24,225.63z M116.25,244.44c2.31-3.64,4.79-10.2,4.79-19.88
			c0-15.44-5.59-25.38-17.92-25.38c-4.53,0-8.43,1.24-11.36,3.46c-3.37,4.61-6.12,11.89-6.12,21.39c0,15.08,6.92,24.49,18.81,24.49
			C109.59,248.52,113.59,246.93,116.25,244.44z"/>
		<path class="st0" d="M188.97,255.18l-7.81-11.09c-7.81-10.65-17.66-22.98-25.38-32.65c0.09,17.57,0.53,33.81,1.42,35.58
			c0.97,1.24,6.12,2.22,10.2,3.19l-0.98,4.61h-25.82l-0.98-4.61l7.9-2.4c0.36-2.93,0.62-10.91,0.62-23.87
			c0-14.46-0.18-22.01-1.06-23.34c-1.42-1.07-4.88-2.4-7.63-3.28l0.98-4.61c5.68,0,12.42-0.18,17.74-0.26
			c5.59,10.12,20.77,28.84,32.66,43.57c-0.18-18.64-0.71-33.81-1.6-35.49c-0.8-1.15-5.94-2.31-9.32-3.19l0.97-4.61h25.73l0.98,4.61
			l-7.99,2.48c-0.8,6.57-1.15,27.51-1.15,54.48L188.97,255.18z"/>
		<path class="st0" d="M236.21,254.82H210.3l-0.98-4.61l7.54-3.02c5.95-12.96,12.34-29.46,18.46-45.34l2.93-8.61
			c2.22-0.62,9.58-1.6,13.58-1.51c0.71,2.84,1.69,6.21,3.28,10.2c6.21,15.79,13.13,34.25,17.92,45.52l8.16,2.75l-0.98,4.61h-27.86
			l-0.98-4.61l8.25-2.4c-1.42-3.9-2.93-8.34-4.7-13.31l-23.6,0.44c-1.51,4.26-2.84,8.43-4.08,12.34l10.03,2.93L236.21,254.82z
			 M252.63,227.94c-2.84-7.9-6.12-16.68-9.67-25.55c-3.19,8.25-6.3,16.95-9.23,25.29L252.63,227.94z"/>
		<path class="st0" d="M298.02,247.81c0.27-1.69,0.62-11.45,0.62-16.33v-15.44c0-5.32-0.09-14.2-1.07-15.53
			c-0.71-1.15-4.61-2.4-7.45-3.19l0.98-4.61h12.87c3.02,0,12.78-0.53,16.95-0.53c14.37,0,23.16,5.32,23.16,16.06
			c0,6.92-4.61,11.62-10.03,14.37c7.28,1.86,13.31,6.65,13.31,15.17c0,11.71-10.74,17.75-23.25,17.75c-5.59,0-13.49-0.71-19.52-0.71
			H291.1l-0.98-4.61L298.02,247.81z M310.97,220.22l13.93,0.53c3.19-1.77,6.39-5.86,6.39-11.54c0-3.73-1.07-6.21-2.48-7.9
			c-2.13-1.69-5.59-2.49-9.41-2.49c-2.22,0-4.88,0.27-7.01,0.62l-0.8,0.27c-0.27,1.69-0.62,11.45-0.62,16.33V220.22z M312.48,247.46
			c1.69,0.89,5.77,1.42,9.49,1.42c2.4,0,5.5-0.26,7.81-1.06c2.75-1.95,4.7-5.68,4.7-10.03c0-6.12-3.9-10.2-11.8-10.2h-11.71v3.9
			c0,5.32,0.09,14.2,1.06,15.53C312.13,247.19,312.31,247.28,312.48,247.46z"/>
		<path class="st0" d="M363.53,247.81c0.26-1.69,0.62-11.45,0.62-16.33v-15.44c0-5.32-0.09-14.2-1.07-15.53
			c-0.71-1.15-4.61-2.4-7.45-3.19l0.98-4.61h27.42l0.98,4.61l-7.9,2.4c-0.27,1.69-0.62,11.45-0.62,16.33v15.44
			c0,5.32,0.09,14.2,1.06,15.53c0.71,1.15,4.61,2.4,7.45,3.19l-0.98,4.61H356.6l-0.98-4.61L363.53,247.81z"/>
		<path class="st0" d="M391.58,225.63c0-20.5,14.73-34.43,32.65-34.43c17.48,0,29.64,11.89,29.64,30.7
			c0,20.14-13.75,34.43-31.77,34.43C404,256.33,391.58,244.44,391.58,225.63z M435.59,244.44c2.31-3.64,4.79-10.2,4.79-19.88
			c0-15.44-5.59-25.38-17.92-25.38c-4.53,0-8.43,1.24-11.36,3.46c-3.37,4.61-6.12,11.89-6.12,21.39c0,15.08,6.92,24.49,18.81,24.49
			C428.93,248.52,432.93,246.93,435.59,244.44z"/>
	</g>
	<g>
		<g>
			<path class="st1" d="M258.62,42.3c1.1,0,2.01,0.77,2.01,1.67c0,0.93-0.9,1.66-2.01,1.66c-1.11,0-1.99-0.73-1.99-1.66
				C256.64,43.06,257.52,42.3,258.62,42.3 M253.5,37.73c1.65-0.99,6.51-1.05,8.97-0.19c2.49,0.86,5.97,2.16,7.42,3.23
				c1.38,1.1,5.9,5.06,6.19,6.1c0.28,1.04,0.47,2.8,0,3.87c-0.47,1.05-1.37,2.07-2.36,2.88c-1.03,0.81-5.8,2.38-7.06,2.54
				c-1.2,0.12-4.77,0.8-5.95,0.66c-1.18-0.12-8.15-3.29-8.64-3.2c-0.49,0.1-1.67,2.65-1.67,2.65s-3.86-2.15-3.65-6.77
				c0.25-4.68,1.62-5.87,2.1-6.49c0.46-0.6,1.75-1.04,2.13-1.84C251.36,40.34,251.86,38.73,253.5,37.73z"/>
			<path class="st1" d="M273.7,55.89c1.76-1.26,3.05-3.35,3.38-3.33c0.27-0.02,2.33,1.47,4.22,3.61c1.64,1.85,3.09,4.25,4.18,5.86
				c2.36,3.4,6.64,10.65,7.57,14.83c0.51,2.29,1.53,11.45,0.57,19.26c-0.75,5.87-1.13,11.89-1.26,12.15
				c-0.28,0.63-1.16,2.64-2.23,1.91c-8.61-5.97-16.39-15.65-21.2-24.8c-1.17-2.23-2.18-4.39-3.17-6.38
				c-1.93-3.95-3.34-7.56-4.37-10.42c-1.33-3.63-1.78-6.12-1.79-6.9c0-1.84,0.46-3.01,0.76-3.14c0.25-0.12,0.89,0.08,1.88,0.18
				c1.1,0.12,2.3,0.12,3.28,0.09C269.49,58.41,270.33,58.3,273.7,55.89"/>
			<path class="st1" d="M275.27,99.04c0.63-0.23,1.19,0.99,2.07,1.8c0.87,0.82,5.76,5.46,6.76,6.69c1.04,1.22,2.16,2.61,2.73,4.14
				c0.54,1.55,0.7,2.67-0.43,7.8c-1.21,5.12-6.63,27.73-9.76,37.99c-3.14,10.26-3.47,12.58-3.72,13.21
				c-0.28,0.67-0.5,1.55-1.78,1.41c-1.35-0.09-1.73-0.56-1.93-2.1c-0.22-1.52-0.5-7.5,0-12.93c0.44-5.41,1.93-14.91,1.93-20.39
				c0-5.47-0.76-8.21-0.57-12.06c0.15-3.87,1.86-15.2,2.7-18.6C274.02,102.63,274.62,99.25,275.27,99.04"/>
			<path class="st1" d="M236.83,60.48c0.05-1.86,1.21-2.14,3.53-2.4c2.36-0.24,4.42,0.06,5.62,0.52c1.16,0.44,4.94,2.14,5.69,2.68
				c0.8,0.52,3.63,3.43,4.85,5.01c1.21,1.59,3.95,5.04,5.24,8.8c1.35,3.73,1.41,5.28,1.35,5.71c-0.06,0.45-2.2,3.77-3.37,4.83
				c-1.13,1.04-4.05,5.33-10.96,4.81c-6.9-0.54-10.14-5.91-11.9-7.1c-1.75-1.16-2.03-1.74-3.9-2.49c-1.88-0.73-2.08-1.47-1.81-2.51
				c0.28-1.08,1.09-2.09,3.35-1.99c2.2,0.12,4.84,0.73,4.84,0.73s-0.65-1.08-2.2-1.52c-1.57-0.45-4.52-0.59-6.43-1.12
				c-1.92-0.54-1.49-1.64-1.45-1.94c0.03-0.35,0.06-2.09,2.61-2.34c2.49-0.25,8.04-0.35,8.04-0.35s-7.28-1.3-8.09-1.56
				c-0.82-0.26-1.27-0.94-1.18-1.8c0.08-0.85,0.36-2.15,2.04-2.41c1.67-0.31,2.89-0.57,4.66-0.46c1.82,0.11,6.82,1,6.82,1
				s0.13-0.67-1.67-1.36C240.7,62.54,236.81,62.33,236.83,60.48"/>
			<path class="st1" d="M243.95,95.32c-0.17-1.55,0.05-2.09,0.41-2.26c0.31-0.17,5.15-1.23,7.03-1.47c1.83-0.27,5.71-0.62,6.32-1.05
				c0.6-0.39,1.44-0.56,2.45-1.5c0.95-0.91,3.63-3.62,4.81-3.88c1.1-0.26,1.99-0.48,2.88,0.91c0.9,1.39,1.13,2.45,0.71,3.58
				c-0.39,1.12-2.3,3.93-5.95,6.03c-3.63,2.12-4.75,2.33-6.13,2.36c-1.37,0.07-7.49,0.77-9.82,0.32
				C244.3,97.92,244.11,96.84,243.95,95.32"/>
			<path class="st1" d="M246.4,100.43c2.31,0,9.65-0.15,10.8-0.34c1.17-0.19,3.72-0.74,5.5-1.95c1.75-1.21,5.65-3.95,6.22-3.86
				c0.51,0.1,2.23,0.6,2.32,2.08c0.12,1.47,0.08,3.85-2.76,6.66c-2.86,2.78-8.08,3.42-11.2,4c-3.15,0.61-6.11,0.96-7.19,0.85
				c-1.11-0.05-5.41-0.61-5.64-2.35C244.24,103.86,244.07,100.43,246.4,100.43"/>
			<path class="st1" d="M269.02,106.87c0.46-0.21,0.32,8.49-0.8,13.57c-1.14,5.11-4.98,20.42-5.65,21.55
				c-0.63,1.17-5.91,3.84-7.56,4.62c-1.63,0.76-5.66,2.15-5.92,2.17c-0.28,0.03-2.22,0.94-2.13-1.51c0.09-2.44,0.54-14.1-0.16-22.15
				c-0.73-8.04-0.88-11.37-1-12.37c-0.12-0.98-0.29-2.67,1.39-2.73c1.68-0.08,6.71,0.02,10.44-0.57
				C261.38,108.85,268.59,107.07,269.02,106.87"/>
			<path class="st1" d="M195.27,123.49c0.21,0,1.04,1.19,1.39,1.69c0.39,0.54,7.38,10.15,17.33,12.24
				c9.94,2.12,13.28-0.32,14.31-1.55c1.04-1.23,3.26-7.33,3.77-8.92c0.47-1.62,1.7-3.28,4.14-3.87c0.94-0.23,2.29-0.53,3.49-0.6
				c2.08-0.13,4.04,0.22,4.73,0.76c1.09,0.91,1.19,8.48,0.72,12.63c-0.51,4.17-1.53,12.12-1.77,12.67
				c-0.21,0.56-4.31,2.68-12.84,2.87c-8.55,0.22-23.99-2.57-32.22-6.97c-8.22-4.36-11.62-7.56-14.88-10.83
				c-3.26-3.28-2.58-2.96-2.32-3.75c0.23-0.79,0.9-2.19,1.37-2.34c0.53-0.11,3.15-0.31,5.18-0.76c2.04-0.44,4.97-1.05,6.01-2.08
				C194.71,123.68,195.04,123.51,195.27,123.49"/>
			<path class="st1" d="M283.35,145.86c0.84,0.48,3.32-0.75,7.03-4.44c3.71-3.69,4.98-5.68,6.42-7.76
				c1.41-2.09,7.99-13.67,10.37-24.72c2.38-11.03,2.26-14.34,2.29-19.41c0.09-5.07-2.09-20.68-5.44-28.33
				c-3.37-7.59-6.41-16.19-13.23-22.38c-6.79-6.21-19.16-15.15-34.09-19.04c-14.93-3.88-18.84-3.42-23.64-3.59
				c-4.73-0.16-17.28,0.76-25.12,2.33c-7.83,1.54-10.3,2.6-12.46,3.14c-2.16,0.52-23.44,9.99-32.58,25.45
				c-9.08,15.47-11.04,34.19-10.51,43.89c0.52,9.71,2.91,36.36,16.57,51.68c13.63,15.29,30.32,22.03,57.26,23.45
				c26.96,1.4,40.76-9.43,40.76-9.43l1.67-13.2c0,0-18.53,10.16-38.84,10.52c-20.3,0.38-39.05-7.38-50.38-20.16
				c-11.36-12.76-15.18-37.61-13.38-55.18c1.8-17.53,9.56-35.3,33.74-44.51c24.22-9.16,53.33-1.7,61.23,0.54
				c7.95,2.25,30.19,16.71,34.67,43.46c4.46,26.72-4.2,38.74-6.3,43.67c-2.09,4.93-4.92,10-5.48,14.25
				C283.39,140.37,282.5,145.37,283.35,145.86"/>
			<path class="st1" d="M183.42,106.54c1.71-0.17,4.5,1.53,4.59,3.1c0.1,1.57-0.67,3.33-2.69,3.71c-2.04,0.34-5.25,0.41-6.02-1.54
				c-0.77-1.93,0-3.74,1.22-4.39C181.73,106.73,181.69,106.7,183.42,106.54 M182.58,105.37c3.73,0,7.88,2.93,7.88,6.38
				c0.03,3.44-2.07,5.63-5.45,5.36c-3.38-0.3-7.94-1.87-7.62-6.67C177.71,105.64,182.58,105.37,182.58,105.37z M209.87,87.77
				c2.25-2.06,5.98-1.37,6.22-1.15c0.11,0.11-0.13,1.04-0.71,2.07c-0.55,0.93-1.42,1.9-2.4,2.82c-2.02,1.95-5.05,2.28-5.52,1.81
				C206.96,92.82,207.61,89.82,209.87,87.77z M231.8,93.94c0.51,0.44-0.29,1.85-0.63,2.06c-0.23,0.2-1.38,1.17-2.26,0.42
				c-0.87-0.74-0.42-1.68,0.83-2.34C230.96,93.45,231.34,93.5,231.8,93.94z M225.38,32.47c1.46-0.04,4.14,6.02,4.53,9.51
				c0.41,3.5,1.41,8.69-1.08,15.45c-2.44,6.73-6.27,12.01-7.47,12.18c-1.24,0.17-2.43,0.37-2.43,0.37s-4.91-4.14-10.25-3.69
				c-5.36,0.45-9.27,2.14-13.89,6.13c-4.63,4.03-6.68,8.02-7.22,11.07c-0.54,3.05-0.37,8.2,0.86,10.86c1.24,2.71,1.76,2.3,1.76,2.3
				s0.87,0.23,1.01-0.09c0.14-0.33-2.57-8.38-0.84-13.45c1.72-5.03,3.82-9.55,12.86-13.41c8.24-3.49,11.88,1.64,14.14,3.28
				c2.15,1.58,4.02,2.73,5.48,3.66c1.44,0.91,9.69,6.47,13.14,10.48c3.48,4.02,3.88,4.26,3.48,5.76c-0.45,1.45-2.41,3.21-2.3,4.25
				c0.07,1.06,1.86,3.57,1.05,5.15c-0.81,1.59-1.44,2.26-3.64,3.32c-2.25,1.1-3.11,2.57-3.05,2.92c0.04,0.3,1.02,0.22,1.87-0.06
				c0.89-0.29,1.61-1.01,3.27-0.81c1.6,0.18,3.63,0.43,4.24,4.23c0.65,3.77,0.65,5.64-0.68,7.33c-1.3,1.68-3,1.84-4.68,2.46
				c-1.63,0.62-3.4,0.69-4.16,1.53c-0.77,0.87-2.41,4.15-3.05,7.33c-0.64,3.17-2.09,4.82-2.53,5.13c-0.46,0.35-9.51,0.73-13.84-0.91
				c-4.37-1.62-6.38-3.24-10.18-7c-3.8-3.77-5.42-6.09-5.42-6.09h-1.7c0,0-3.96,4.26-9.27,3.41c-5.3-0.87-14.28-4.1-14.16-15.02
				c0.12-10.92,7.47-11.93,7.82-12.61c0.37-0.69,0.52-1.67-1.01-1.64c-1.53,0.06-3.88,0.78-5.34,1.73c-1.46,0.96-4.17,3.12-4.39,1.1
				c-0.25-1.99,0.37-7.41,5.55-9.96c5.16-2.56,6.37-2.04,6.28-3.97c-0.07-1.9-4.02-1.09-5.27-0.59c-1.22,0.5-4.2,2-4.44,2.33
				c-0.22,0.31-2.21,1.81-2.21-0.39c0-2.26,0.75-6.58,5.13-9.17c4.34-2.6,8.96-1.49,9.08-3.09c0.11-1.61-1.82-2.15-3.49-1.95
				c-1.71,0.17-6.38,1.68-7.28,2.44c-0.87,0.77-2.4,0.9-1.98-1.32c0.38-2.23,2.43-7.52,7.81-9.04c5.34-1.59,9.63,1.27,10.11,0.31
				c0.51-0.96,0.1-2.78-2.14-3.78c-2.23-0.98-3.71-1.45-6.94-0.45c-3.24,1-3.93,0.51-3.4-0.74c0.55-1.2,2.22-7.6,9.9-7.64
				c7.67-0.03,9.62,7.05,11.41,6.57c1.84-0.51-0.73-6.29-2.23-8.64c-1.47-2.39-6.65-6.11-4.69-7.51c1.92-1.42,6.71-0.87,9.69,1.04
				c3,1.9,3,2.28,3.77,3.39c0.79,1.07,3.72,7.72,4.37,7.48c0.63-0.23,0.91-4.14,0.36-6.91c-0.53-2.8-4.21-8.91-5.36-9.99
				c-1.13-1.04-0.88-1.95,1.14-2.06c1.99-0.15,7.57,0.51,10.67,4.4c3.07,3.84,3.23,10.59,2.82,11.53c-0.33,0.97-0.2,3.46,1.16,1.98
				c1.35-1.51,4.25-6.29,4.95-11.01C223.79,37.16,223.93,32.5,225.38,32.47z"/>
		</g>
	</g>
</g>
</svg>
