<svg id="Layer_1" data-name="Layer 1" xmlns="http://www.w3.org/2000/svg" viewBox="0 0 400 400"><defs><style>.cls-1{fill:#f1f1f2;}</style></defs><title>iconosSIMAR</title><path class="cls-1" d="M52.66,226.19a419.5,419.5,0,0,0-46.74,9.1,199.81,199.81,0,0,0,23.4,49q11.55-3.45,23.34-6.11Z"/><path class="cls-1" d="M154,225.92c-6.86-1.06-13.7-1.84-20.48-2.4V269.9a280.54,280.54,0,0,1,29.5,2.38,229.89,229.89,0,0,1,22.66,4.23c3.73.92,7.46,1.87,11.15,3s7.33,2.38,10.92,3.37c28.75,8.58,59.37,11.68,89.09,6.91a191.6,191.6,0,0,0,43.36-12.43c7-2.85,13.86-6.1,20.63-9.55l10.16-5.2c2.3-1.1,4.61-2.26,7-3.19a198.21,198.21,0,0,0,16.11-51.74C295.16,270,234.88,238.44,154,225.92Z"/><path class="cls-1" d="M371.36,263.31l-9.87,5.74c-6.59,3.82-13.31,7.46-20.24,10.72a193.08,193.08,0,0,1-21.38,8.46,179.51,179.51,0,0,1-22.33,5.7,181.12,181.12,0,0,1-46,2.48,218.52,218.52,0,0,1-45.35-8.4c-3.74-1.06-7.22-2.42-10.86-3.42s-7.23-2-10.88-3c-7.29-1.81-14.7-3.16-22.14-4.31a277.28,277.28,0,0,0-28.78-2.82V314a225.7,225.7,0,0,1,36.07,4.3c12.63,2.36,25,5.51,37.47,8.28a359,359,0,0,0,37.36,6.92,161.32,161.32,0,0,0,37.65.47,141.24,141.24,0,0,0,18.58-3.32,133.93,133.93,0,0,0,18-5.76,119.07,119.07,0,0,0,22.48-11.75,202,202,0,0,0,36.65-53.3C375.58,260.87,373.47,262.1,371.36,263.31Z"/><path class="cls-1" d="M52.66,279.87c-7.78,1.33-15.53,2.89-23.24,4.62a202.2,202.2,0,0,0,23.24,29.05Z"/><path class="cls-1" d="M319.72,327.35a136.8,136.8,0,0,1-18.15,6.76,140.77,140.77,0,0,1-19,4.08c-12.85,1.92-25.94,1.7-38.78.4a334.45,334.45,0,0,1-38-6.82c-12.47-2.92-24.85-6-37.26-8.62-6.21-1.31-12.44-2.46-18.7-3.37C144.43,319,139,318.34,133.5,318v46.27H132a198.15,198.15,0,0,0,64.68,10.81h0A199.4,199.4,0,0,0,336.32,318,118.71,118.71,0,0,1,319.72,327.35Z"/><path class="cls-1" d="M235.67,118.79a1.31,1.31,0,0,0-.6-.54l-10.46-4.68-4.33-1.94L209.81,107a1.34,1.34,0,0,0-.79-.09l-19.53,4a1.3,1.3,0,0,0-.27,2.46l25.23,11.29,4.34,1.94L244,137.88a1.3,1.3,0,0,0,1.65-1.85Z"/><path class="cls-1" d="M222.56,130.66l-6.83-3-6.83-3.06-3,15.79-2.48,13.21a1.71,1.71,0,0,0-.74.11,1.75,1.75,0,1,0,2.26,1,1.77,1.77,0,0,0-.41-.62l8.2-10.66Z"/><path class="cls-1" d="M199.25,84.89,126.79,64a6.36,6.36,0,0,1-3.2-8.37l12.1-27a6.36,6.36,0,0,1,8.37-3.2L207.9,65.56a6.35,6.35,0,0,1,3.19,8.37l-3.47,7.76A6.36,6.36,0,0,1,199.25,84.89Z"/><rect class="cls-1" x="209.68" y="68.49" width="46.7" height="40.92" rx="4.38" ry="4.38" transform="translate(56.67 265.34) rotate(-65.9)"/><path class="cls-1" d="M250.4,68.26a7.44,7.44,0,0,0-13.53-6.05Z"/><path class="cls-1" d="M258.9,111.57l63.83,40.13a6.36,6.36,0,0,0,8.37-3.2l12.1-27a6.36,6.36,0,0,0-3.2-8.37L267.54,92.24a6.36,6.36,0,0,0-8.37,3.2l-3.47,7.76A6.36,6.36,0,0,0,258.9,111.57Z"/><path class="cls-1" d="M85,348.14a6.73,6.73,0,0,1-6.73-6.73V163.63a6.74,6.74,0,1,1,13.47,0V341.41A6.73,6.73,0,0,1,85,348.14Z"/><path class="cls-1" d="M101.94,204.16H85.78a6.74,6.74,0,1,1,0-13.47h16.16a6.74,6.74,0,0,1,0,13.47Z"/><path class="cls-1" d="M107.33,231.11H91.16a6.74,6.74,0,0,1,0-13.48h16.17a6.74,6.74,0,0,1,0,13.48Z"/><path class="cls-1" d="M101.94,258.05H85.78a6.74,6.74,0,1,1,0-13.47h16.16a6.74,6.74,0,0,1,0,13.47Z"/><path class="cls-1" d="M107.33,285H91.16a6.74,6.74,0,0,1,0-13.47h16.17a6.74,6.74,0,0,1,0,13.47Z"/><path class="cls-1" d="M101.94,312H85.78a6.74,6.74,0,0,1,0-13.48h16.16a6.74,6.74,0,0,1,0,13.48Z"/><path class="cls-1" d="M107.33,338.89H91.16a6.74,6.74,0,0,1,0-13.47h16.17a6.74,6.74,0,0,1,0,13.47Z"/></svg>