<svg id="Layer_1" data-name="Layer 1" xmlns="http://www.w3.org/2000/svg" viewBox="0 0 400 400"><defs><style>.cls-1{fill:#f1f1f2;}</style></defs><title>iconosSIMAR</title><path class="cls-1" d="M233.06,338.48a11.55,11.55,0,0,0-12.11,3c-1.71,1.68-3.43,3.38-5.25,5.19l-1.24-70.88A91,91,0,0,0,199.74,95.05l-1.62,0A91,91,0,0,0,183.73,275.6L185,347.66c0,.3,0,.59.06.89-2.08-2.34-4.14-4.7-6.38-6.87-5.06-4.93-12.25-5-16.94-.48-4.85,4.71-4.83,12,.34,17.22q14.61,14.64,29.46,29c5.36,5.18,12,5.11,17.2-.08,9.68-9.6,19.26-19.31,28.82-29A11.5,11.5,0,0,0,241.12,348C240.31,343.23,237.66,339.88,233.06,338.48ZM201,257.72H199.7a71.69,71.69,0,0,1-1.24-143.37h1.27A71.69,71.69,0,0,1,201,257.72Z"/><path class="cls-1" d="M141.62,187.06a57.31,57.31,0,0,0,6,24.51V162.81a4.33,4.33,0,0,0-.35-1.69A57.7,57.7,0,0,0,141.62,187.06Z"/><path class="cls-1" d="M156.1,166.59a4.37,4.37,0,0,0-4.35,4.37v47.71a58.57,58.57,0,0,0,8.69,10V171A4.37,4.37,0,0,0,156.1,166.59Z"/><path class="cls-1" d="M169,174.74a4.37,4.37,0,0,0-4.34,4.37V232.2a58.51,58.51,0,0,0,8.69,5.51v-58.6A4.37,4.37,0,0,0,169,174.74Z"/><path class="cls-1" d="M181.81,182.89a4.37,4.37,0,0,0-4.35,4.37v52.41a58.62,58.62,0,0,0,8.7,2.85V187.26A4.37,4.37,0,0,0,181.81,182.89Z"/><path class="cls-1" d="M194.67,173a4.37,4.37,0,0,0-4.35,4.36v66a56.84,56.84,0,0,0,8.7.76V177.36A4.37,4.37,0,0,0,194.67,173Z"/><path class="cls-1" d="M207.53,170.79a4.38,4.38,0,0,0-4.35,4.37V244a56.58,56.58,0,0,0,8.7-1.18V175.16A4.38,4.38,0,0,0,207.53,170.79Z"/><path class="cls-1" d="M220.39,164.39a4.37,4.37,0,0,0-4.35,4.36V241.8a58.11,58.11,0,0,0,8.7-3.34V168.75A4.37,4.37,0,0,0,220.39,164.39Z"/><path class="cls-1" d="M233.25,158a4.36,4.36,0,0,0-4.35,4.36v73.91a58.06,58.06,0,0,0,8.69-6.2V162.35A4.36,4.36,0,0,0,233.25,158Z"/><path class="cls-1" d="M246.1,166.13a4.38,4.38,0,0,0-4.35,4.37v55.6a58.23,58.23,0,0,0,8.7-11.79V170.5A4.37,4.37,0,0,0,246.1,166.13Z"/><path class="cls-1" d="M256.72,174.93a4.37,4.37,0,0,0-2.11,3.72v26.44a57.59,57.59,0,0,0,3.2-20.07A57,57,0,0,0,256.72,174.93Z"/><path class="cls-1" d="M374,163a19.92,19.92,0,0,0-15-7.83,106.07,106.07,0,0,0-11.48-.11,21.37,21.37,0,0,1-20.26-10.89l-.32-.55c-3.6-6.24-8.08-14-6.88-23.9a24.7,24.7,0,0,1,5.29-12.12,66.67,66.67,0,0,1,5.87-6.22c1.36-1.32,2.63-2.56,3.7-3.79,7.55-8.64,7.26-20.44-.7-28.69-5-5.15-10.15-10.34-15.43-15.44-9.17-8.86-21.5-8.8-30.7.16-.63.62-1.28,1.23-1.92,1.84a54.47,54.47,0,0,0-4.23,4.28c-5.72,6.82-14.06,9.34-22.9,6.92a71.76,71.76,0,0,1-16.45-7.11c-6.78-3.84-10.58-10.86-10.43-19.28l0-2.21a60.55,60.55,0,0,0-.46-11.89c-1.73-9.32-7-14.75-16.45-17.09A13.25,13.25,0,0,1,214,8.72H185.81l-1.58.5a31.71,31.71,0,0,0-4.63,1.69c-7.42,3.77-11.12,9.35-11.63,17.56a79.45,79.45,0,0,0-.07,10.3,22.25,22.25,0,0,1-12.15,22l-1.27.68c-5.76,3.11-12.92,7-22,5.65a25.88,25.88,0,0,1-11.87-5.16,64.19,64.19,0,0,1-6.25-5.87c-1.2-1.23-2.32-2.39-3.43-3.37-9-8-20.47-7.83-29.19.43-5.46,5.18-11,10.71-16.41,16.45a20.72,20.72,0,0,0-.57,27.58,79.73,79.73,0,0,0,8,8.19c6.71,5.8,9.1,14.09,6.7,23.32a63,63,0,0,1-5.85,14.25c-4.28,7.9-11.66,12.25-20.94,12.25h-.46c-6,0-11.66,0-16.53,1.24-8.27,2.14-14.07,10.06-14.1,19.26,0,7.28,0,15.07,0,22.73.06,11.47,8.36,20.19,19.75,20.74,4,.2,7.93.22,11.7.09,7.58-.29,14,2.82,18.18,8.73C76.15,235,81,243.67,80,254.7a22.73,22.73,0,0,1-5.18,11.92A76.73,76.73,0,0,1,68.71,273c-1.23,1.19-2.4,2.32-3.45,3.44-7.22,7.76-7.47,19.84-.57,27.5a265.7,265.7,0,0,0,18.82,18.87c6.87,6.25,19.55,6.05,26.59-.4l.58-.54a80.25,80.25,0,0,0,7.22-7.16,21.51,21.51,0,0,1,16.81-7.94,25.63,25.63,0,0,1,6.61.9,70.18,70.18,0,0,1,15.94,6.9,20.22,20.22,0,0,1,8.88,9.94,24.62,24.62,0,0,1,4.85-.25l-.5-28.59a112.47,112.47,0,1,1,132.84-64.11A112.26,112.26,0,0,1,228.4,296l.49,28.35a24.82,24.82,0,0,1,4.83.41,22.42,22.42,0,0,1,10.38-11.11l.85-.46c5.86-3.19,13.15-7.17,22.37-6a25.32,25.32,0,0,1,12,5.11,65.29,65.29,0,0,1,6.8,6.4c1,1,1.94,2,2.88,2.91,7.06,6.73,16.45,7.71,24.51,2.54S329,311.9,336.8,301.82c5.36-6.88,4.56-18.12-1.77-25.06a95,95,0,0,0-7.82-7.85c-4.83-4.18-9.87-11.75-6.46-24.08A64.49,64.49,0,0,1,326,232c4.6-8.64,12.33-13.16,21.74-12.77a70.41,70.41,0,0,0,13.5-.33c8.55-1.35,14.83-7.54,16.8-16.56a11.81,11.81,0,0,1,.39-1.36V173.3C377.33,169.24,376.14,165.67,374,163Z"/></svg>