<svg id="a2659941-2237-45bd-a508-f880221ec1e4" data-name="Viñetas" xmlns="http://www.w3.org/2000/svg" viewBox="0 0 526.35 337.96"><path d="M208.8,458.79l.07.21a125.34,125.34,0,0,1-1.44-17.31q-.18,1.53-.42,3C206,450.75,207.76,455.79,208.8,458.79Z" transform="translate(-174.34 -123.2)" style="fill:none"/><path d="M334.22,398.23l.08.12c.69-.9,1.38-1.79,2.07-2.65,1.34-1.69,2.7-3.41,4-5.24-.21-.46-.43-.91-.64-1.36C338,392.19,336.11,395.25,334.22,398.23Z" transform="translate(-174.34 -123.2)" style="fill:none"/><path d="M517.26,360.92c.52,2.17,1.2,4.42,2,6.73,0-.29.08-.59.13-.88-1.21-12.5-2-25.56-2.4-39.59q-.87-1.74-1.8-3.45C514.87,337.71,515.24,352.5,517.26,360.92Z" transform="translate(-174.34 -123.2)" style="fill:none"/><path d="M516.92,324.91q-.17-6.6-.22-13.5c-.35-.2-.7-.38-1.05-.6-.19,3.73-.34,7.72-.44,11.8C515.8,323.37,516.37,324.13,516.92,324.91Z" transform="translate(-174.34 -123.2)" style="fill:none"/><path d="M525.65,342a69.19,69.19,0,0,1,5.69-11.31,42.07,42.07,0,0,0-2.93-9.28,15.73,15.73,0,0,0-6-7c.75,8.8,1.8,17.75,3,26.85C525.48,341.46,525.57,341.71,525.65,342Z" transform="translate(-174.34 -123.2)" style="fill:none"/><path d="M532.92,379.94c.62,6.91,1.51,13.72,2.38,20.3q.47,3.52.9,7l.14.32c.1-1.58.2-3.14.29-4.7-.39-2-.75-4-1-6.07-1.27-9.43-1.39-19.71-1.52-29.65,0-3.28-.08-6.68-.16-10a159.32,159.32,0,0,0-2.22-24.72,108.53,108.53,0,0,0-4.93,12.83C530.28,356.28,531.87,368.21,532.92,379.94Z" transform="translate(-174.34 -123.2)" style="fill:none"/><path d="M516.56,297.15l.14.07c0-.59,0-1.17,0-1.76C516.66,296,516.61,296.56,516.56,297.15Z" transform="translate(-174.34 -123.2)" style="fill:none"/><path d="M319.26,388.32c-2.18,4.07-4.47,8.37-6.78,12.91-.58,3.8-1.14,7.61-1.61,11.41-.89,7.25-1.46,14.66-1.75,22.05a133.44,133.44,0,0,1,2.49-16.45c.78-3.53,5.2-9.27,10.32-15.93,1.33-1.72,2.68-3.48,4-5.27-2-3.63-3.87-7.35-5.45-11.06C320.1,386.76,319.68,387.53,319.26,388.32Z" transform="translate(-174.34 -123.2)" style="fill:none"/><path d="M503.47,410.21l0,.12c0,.62,0,1.23,0,1.84,0,1.21,0,2.41.05,3.62C503.52,413.9,503.5,412,503.47,410.21Z" transform="translate(-174.34 -123.2)" style="fill:none"/><path d="M219.08,410.46h0c0-1.69,0-3.41,0-5.13q-.17,4.85-.11,9.92C219,413.66,219.05,412.06,219.08,410.46Z" transform="translate(-174.34 -123.2)" style="fill:none"/><path d="M254,203.9a32,32,0,0,0,0-6.55A43.41,43.41,0,0,1,254,203.9Z" transform="translate(-174.34 -123.2)" style="fill:none"/><path d="M508.28,394.94c.51,2.39,1,4.79,1.42,7.19A241.43,241.43,0,0,1,513,428.07c.31-8.26,1.36-16.87,2.46-25.77.57-4.59,1.14-9.3,1.63-14.07-2.83-6-5.41-11.64-7.35-17-.13.79-.27,1.58-.41,2.37A64,64,0,0,1,508.28,394.94Z" transform="translate(-174.34 -123.2)" style="fill:none"/><path d="M324.24,378.88A56.55,56.55,0,0,0,330,391.49a83.48,83.48,0,0,0,6.17-10.09,113.83,113.83,0,0,1-6-15.56A128.42,128.42,0,0,1,324.24,378.88Z" transform="translate(-174.34 -123.2)" style="fill:none"/><path d="M501.91,369.46c.5-1.79,1-3.61,1.45-5.44a146.76,146.76,0,0,0-4.29-16q-.29,3.66-.61,7.24C499.5,360,500.69,364.76,501.91,369.46Z" transform="translate(-174.34 -123.2)" style="fill:none"/><path d="M512.18,458.88a29.94,29.94,0,0,0,1.54-13.6c-.13-.89-.24-1.78-.34-2.68a135.68,135.68,0,0,1-1.2,16.29Z" transform="translate(-174.34 -123.2)" style="fill:none"/><path d="M500.75,308.87q-.09,7-.3,13.76c0,8.25.36,16.61,2.18,24.65.67,2.92,1.53,5.82,2.4,8.66.07-.46.15-.91.21-1.37C507.34,339.19,504.17,323.81,500.75,308.87Z" transform="translate(-174.34 -123.2)" style="fill:none"/><path d="M358.6,407.55c.8-12.23,1.23-23.86,1.31-35.12A59.24,59.24,0,0,1,354.06,386q1.14,7.95,2.16,16C357,403.8,357.82,405.67,358.6,407.55Z" transform="translate(-174.34 -123.2)" style="fill:none"/><path d="M425.65,387.18a46.72,46.72,0,0,0,2.28,5.62c-1.09-8.1-1.87-16.52-2.33-25.46q-1.05-2.83-2.08-5.73C423.31,371.35,423.75,381.35,425.65,387.18Z" transform="translate(-174.34 -123.2)" style="fill:none"/><path d="M431.9,199.37a78.11,78.11,0,0,0,4.09,10c1.06,2.31,2.17,4.7,3.1,7.15,3.41,9,4.8,19.44,4.27,31.94-.48,11-2.4,22.41-4.32,33.11-3.19,17.68-6,36.61-4.76,55.28.88,13.71,4.22,27.11,7.44,40.07,1.5,6,3,12.23,4.32,18.44q0-2.79,0-5.55a228.74,228.74,0,0,0-3.94-39.8c-.26-1.4-.55-2.82-.82-4.19-.73-3.71-1.49-7.55-2-11.35a119.94,119.94,0,0,1-.83-15.93c.09-20.05,2.88-39.74,7-63.13,2.39-13.41,5-25.37,12.33-35.75-1-6.77-2.17-13.7-3.37-20.76-3-17.7-6.09-35.86-6.77-54.14a62,62,0,0,0-14.17,21.63C429.42,177.31,428.82,189.32,431.9,199.37Z" transform="translate(-174.34 -123.2)" style="fill:none"/><path d="M413,408.27c0,1.31,0,2.61,0,3.9s0,2.41,0,3.62C413.13,413.23,413.09,410.73,413,408.27Z" transform="translate(-174.34 -123.2)" style="fill:none"/><path d="M367.69,387.08c-.7,12.14-1.38,24.82-2,37.08L365.5,427a100.77,100.77,0,0,1,4.05,24.13c1.23-12.6,1.78-24.42,2.35-36.77.34-7.57.7-15.39,1.23-23.6,1.45-22.36-.72-45.55-2.81-68-.1-1-.19-2-.29-3.05a16.09,16.09,0,0,0-1.31,1.92,24.34,24.34,0,0,0-1.92,4.6c1,8.42,1.72,16.88,1.94,25.34C369.05,363.42,368.36,375.45,367.69,387.08Z" transform="translate(-174.34 -123.2)" style="fill:none"/><path d="M451.63,435.94a57,57,0,0,1,4.05,17.82c.32-2.48.61-4.91.85-7.32q-2-17.13-3.12-34.54c-.56,7.28-1.1,14.72-1.63,22Z" transform="translate(-174.34 -123.2)" style="fill:none"/><path d="M445.88,278c-4.46,17.44-2.09,35.67.81,51.21.78,4.14,1.64,8.35,2.47,12.42.91,4.42,1.82,8.9,2.65,13.41.11-8.7.47-18.16,1.51-27.81a130.14,130.14,0,0,1,1.24-26c.86-5.37,1.88-10.45,3-15.32l.06-.61c.75-8.72,1.46-17,2.23-24,1.37-12.57.15-26.4-2-41-3,10.44-4.88,21-6.68,31.29C449.71,260.21,448.14,269.16,445.88,278Z" transform="translate(-174.34 -123.2)" style="fill:none"/><path d="M349.14,434.82c-.25-6.89-.73-13.79-1.46-20.54-.4-3.67-.87-7.36-1.38-11-.68-1.54-1.37-3.06-2.05-4.54a68.38,68.38,0,0,0-4.63,7.56c3.78,5.59,6.87,10.37,7.46,13.42A142.48,142.48,0,0,1,349.14,434.82Z" transform="translate(-174.34 -123.2)" style="fill:none"/><path d="M342.13,229.48c.07-.68.15-1.35.23-2l-1.37.8c.09,3.87.16,7.77.19,11.66C341.46,236.37,341.78,232.9,342.13,229.48Z" transform="translate(-174.34 -123.2)" style="fill:none"/><path d="M286.65,326.49c.84-1.61,1.7-3.22,2.61-4.85-.3-2.67-.67-5.33-1.09-8Q287.32,320.05,286.65,326.49Z" transform="translate(-174.34 -123.2)" style="fill:none"/><path d="M339,295.46c-1.37,14.5-3.08,50.31.55,65.46.39,1.63.87,3.31,1.42,5,.14-.59.29-1.18.45-1.8A681.07,681.07,0,0,1,339,295.46Z" transform="translate(-174.34 -123.2)" style="fill:none"/><path d="M550.87,390.73c.26-4,.4-7.94.45-11.93-2.55,14.09-3.38,29.53-2.49,47.11l.23.38c.21-4,.39-7.94.58-12C550,406.76,550.34,398.94,550.87,390.73Z" transform="translate(-174.34 -123.2)" style="fill:none"/><path d="M344.13,307.7l0-1.62c-.22-9.75-.44-19.82-.27-33.17,0,.67-.07,1.34-.11,2A266.64,266.64,0,0,0,344.13,307.7Z" transform="translate(-174.34 -123.2)" style="fill:none"/><path d="M335.08,239q.07-3.26.1-6.57c-2.62,2.44-5.79,6.41-8.9,13.9.87,15.63,2.4,35.63,3.8,53.86.29,3.81.57,7.54.85,11.15q.18-2.83.38-5.73C332.94,281.6,334.78,254.36,335.08,239Z" transform="translate(-174.34 -123.2)" style="fill:none"/><path d="M319.35,348.7c0,1.27.06,2.57.1,3.91a54.47,54.47,0,0,0,.62,6.23c.14-.47.29-.95.41-1.41,4.3-15.8,2.22-53.34.6-68.11C321.33,311.16,320.77,330.6,319.35,348.7Z" transform="translate(-174.34 -123.2)" style="fill:none"/><path d="M286.87,376.56c1-7.79,1.95-15.71,2.57-23.67-1.48,3.55-3.08,7-4.69,10.45,0,8.57.14,17.32.56,26.36C285.8,385.3,286.34,380.87,286.87,376.56Z" transform="translate(-174.34 -123.2)" style="fill:none"/><path d="M315.92,282.14c-.54,1.62-1.16,3.36-1.88,5.29-.45,1.2-.94,2.53-1.45,3.93-2.08,5.66-4.67,12.7-6.86,17.51l-.84,1.82q-1.2,2.63-2.45,5.39a98.73,98.73,0,0,1,2.18,13.2C305.91,344,303,358.73,300.2,373c-.77,3.92-1.57,8-2.27,12a291.15,291.15,0,0,0-3.54,29c2-4.81,4.22-9.52,6.5-14.12,1.64-11.41,3.53-22.78,5.41-34C311.19,336.56,315.83,308.66,315.92,282.14Z" transform="translate(-174.34 -123.2)" style="fill:none"/><path d="M355.15,304.91c-.73-5-1.49-10.22-2-15.38-.59-6.26-.86-13.12-.83-21.57.06-16.6,1.12-33,2.89-50.52-2.1,3.37-5.23,5.6-8.55,7.55-1,13.07-1.68,26.26-2.41,39.77-.07,1.41-.15,2.83-.23,4.25l0,.19c4.14,18.77,4.77,38.28,5.38,57.14l.09,2.62c.3,9.34.54,16.69-.13,25.19q.69,4.75,1.39,9.57c.76-3.76,1.44-7.61,2.1-11.41,1.41-8.08,2.86-16.37,5.16-23.51-.58-6.1-1.27-12.18-2.11-18.21C355.71,308.7,355.42,306.77,355.15,304.91Z" transform="translate(-174.34 -123.2)" style="fill:none"/><path d="M655.27,343.29c.33-13.57.18-23.69,0-33.87C653.34,319.38,653.34,330.4,655.27,343.29Z" transform="translate(-174.34 -123.2)" style="fill:none"/><path d="M630.39,365.38a79.1,79.1,0,0,0,2.56-7.95c3.39-13.25,2.56-41.78,1.31-59.36-.23.64-.45,1.27-.68,1.9A618.81,618.81,0,0,1,630.39,365.38Z" transform="translate(-174.34 -123.2)" style="fill:none"/><path d="M393.09,306.23l-.28.14c-2.28,1.1-4.57,2.28-6.84,3.46a140.6,140.6,0,0,0-4.44,23.9c-1.1,14.15,1.37,28.42,3.76,42.22.66,3.79,1.34,7.71,1.93,11.56A325.24,325.24,0,0,1,390,461.13h6c1.62,0,2.34-2.51,3.33-6l.13-.43c1.17-4.1.85-9.87.57-15-.12-2-.22-3.93-.23-5.62-.07-13.4-.74-26.93-2-40.24-.45-4.82-1-9.72-1.5-14.46-1.73-15.87-3.52-32.28-2.43-48.45.62-9.2,2.19-18.43,3.7-27.35.74-4.33,1.5-8.81,2.15-13.24,1.44-9.94,2.26-27.19,2.19-46.13-.06-16.56-.84-29.48-1.81-30,0,0,0,0,0,0a348.67,348.67,0,0,1-10.64,82.48c-.6,2.38-1.24,4.79-1.86,7.13-.14.56-.29,1.12-.44,1.68a57,57,0,0,1,5.68.68Z" transform="translate(-174.34 -123.2)" style="fill:#333"/><path d="M373.62,268c-1.72-17.93,1.36-38.51,4.63-60.3,3.15-21,6.4-42.71,5.83-64.44-1.17,21.91-3,37.82-9.36,65.43a332.85,332.85,0,0,0-6.09,35.81c-2.56,21.63-1.17,44,.77,66.06a22.55,22.55,0,0,1,7.33-3.95h0c-.41-5.05-.81-10.25-1.2-15.38C374.89,282.84,374.28,274.88,373.62,268Z" transform="translate(-174.34 -123.2)" style="fill:#333"/><path d="M373.33,390.74c-.53,8.21-.89,16-1.23,23.6-.59,12.87-1.17,25.17-2.51,38.37a76.74,76.74,0,0,1-.32,8.42h5.67a807.49,807.49,0,0,0,5.61-94.2,336.9,336.9,0,0,0-1.91-40.54c-.44-3.71-.85-7.78-1.24-12.06l-.73.39a19.07,19.07,0,0,0-6.46,4.76c.1,1.09.21,2.17.31,3.26C372.61,345.17,374.78,368.37,373.33,390.74Z" transform="translate(-174.34 -123.2)" style="fill:#333"/><path d="M343.68,218l2.45-.39.94-.14c1.28-15.44,3-30.75,5.59-46.19A368.22,368.22,0,0,0,343.68,218Z" transform="translate(-174.34 -123.2)" style="fill:#333"/><path d="M347.13,370.94a39.67,39.67,0,0,1-1.84,6.51q.49,1.19,1,2.4a92.23,92.23,0,0,0,4.39-15.56c-.45-3.11-.9-6.19-1.34-9.26C349,359.77,348.26,364.89,347.13,370.94Z" transform="translate(-174.34 -123.2)" style="fill:#333"/><path d="M355.93,401.29q-1-7.55-2-15.05c-.23.37-.46.74-.7,1.09-.71,1.06-1.45,2-2.19,3l.06.14C352.68,394,354.32,397.61,355.93,401.29Z" transform="translate(-174.34 -123.2)" style="fill:#333"/><path d="M349.49,440a153.57,153.57,0,0,1-.34,21.05.57.57,0,0,1,0,.13h4.15c1.36-10.68,2.5-20.81,3.44-30.53a231.38,231.38,0,0,0-10.13-26.7c.46,3.45.91,6.91,1.28,10.36C348.79,422.69,349.32,431.35,349.49,440Z" transform="translate(-174.34 -123.2)" style="fill:#333"/><path d="M343.52,274.92q.28-5.1.55-10.17c.73-13.46,1.44-26.61,2.4-39.63-.84.49-1.68,1-2.53,1.44l-1.37.77c-.08.73-.17,1.44-.24,2.17-.43,4.17-.8,8.43-1.14,12.81.07,17.57-.57,35.11-2,50.73a690.94,690.94,0,0,0,2.33,70.51,76.73,76.73,0,0,0,2.5-14.72c.53-15.47.41-26.5.18-37.33A276,276,0,0,1,343.52,274.92Z" transform="translate(-174.34 -123.2)" style="fill:#333"/><path d="M339.26,425.78a58.06,58.06,0,0,1,1.9,9c1.19,9.41.71,14.91-.5,26.41h8.28a153.6,153.6,0,0,0-2.06-41.43c-.58-3-3.63-7.73-7.36-13.25q-1.95,3.7-3.77,8.06a26.81,26.81,0,0,1,2.06,5.46C338.31,422.27,338.8,424.05,339.26,425.78Z" transform="translate(-174.34 -123.2)" style="fill:#333"/><path d="M333.37,399.56c.26-.35.53-.69.8-1l-.07-.1Z" transform="translate(-174.34 -123.2)" style="fill:#333"/><path d="M319.2,350.55q-.63,7.57-1.45,14.87c.83-2.09,1.57-4.13,2.18-6.11a56.4,56.4,0,0,1-.68-6.69C319.23,351.91,319.22,351.24,319.2,350.55Z" transform="translate(-174.34 -123.2)" style="fill:#333"/><path d="M320.63,385.76c1.58,3.72,3.48,7.46,5.46,11.1,1.29-1.71,2.56-3.45,3.78-5.19a57.48,57.48,0,0,1-5.76-12.53C323,381.3,321.84,383.5,320.63,385.76Z" transform="translate(-174.34 -123.2)" style="fill:#333"/><path d="M360.37,282.41a322.5,322.5,0,0,1-3.21-34.82,159.83,159.83,0,0,1,2.4-34.65c2.26-12,3.83-24.1,5.34-35.82,1.8-13.91,3.66-28.29,6.69-42.46-7.12,13.91-9.66,29.89-12,47.81-1.47,11.22-2.77,21.8-3.84,32a11.47,11.47,0,0,0,1-.84l.28-.25-.11.36a16.36,16.36,0,0,1-1.47,3.31c-1.79,17.64-2.87,34.18-2.93,50.9,0,8.45.24,15.3.83,21.56.49,5.14,1.25,10.34,2,15.37.27,1.85.55,3.78.82,5.67q1.23,8.82,2.06,17.76a53.74,53.74,0,0,1,1.95-5.11,38.1,38.1,0,0,1,4.95-8.31c-.73-5.26-1.51-10.48-2.29-15.65C362,293.73,361.14,288,360.37,282.41Z" transform="translate(-174.34 -123.2)" style="fill:#333"/><path d="M365.33,426.38l.12-2.23c.66-12.26,1.34-24.94,2-37.08.67-11.63,1.36-23.66,1.05-35.5-.21-8.29-.93-16.6-1.89-24.87-1.69,5.73-2.2,12.94-2.69,20-.24,3.33-.48,6.78-.85,10a88.68,88.68,0,0,1-3,15.08c-.06,11.6-.5,23.58-1.34,36.22A179.21,179.21,0,0,1,365.33,426.38Z" transform="translate(-174.34 -123.2)" style="fill:#333"/><path d="M360.08,461.13h3.17a179.26,179.26,0,0,0-6.37-30c-.93,9.56-2.05,19.52-3.39,30Z" transform="translate(-174.34 -123.2)" style="fill:#333"/><path d="M497.56,364.15c.13.62.27,1.25.41,1.86.72,3.26,1.44,6.6,2.11,9.94.32-1.15.65-2.3,1-3.42.25-.89.5-1.78.76-2.68-1.2-4.61-2.37-9.3-3.4-14C498.15,358.66,497.86,361.41,497.56,364.15Z" transform="translate(-174.34 -123.2)" style="fill:#333"/><path d="M508.17,395.39c-.43,1.89-.94,3.77-1.55,5.62-.42,1.31-.9,2.62-1.36,3.9-.56,1.52-1.11,3.08-1.6,4.66q.12,6-.07,12.43.11,8.43.22,16.85l.09,6.74c.11,8-.6,11.77-2.59,13.75a5.7,5.7,0,0,1-1,.79c0,.35-.09.68-.14,1h11.51a3.29,3.29,0,0,1,.14-.9,134.41,134.41,0,0,0,1.42-19.52,100.93,100.93,0,0,1-.29-10.63,236.77,236.77,0,0,0-3.41-27.95C509.1,399.9,508.65,397.64,508.17,395.39Z" transform="translate(-174.34 -123.2)" style="fill:#333"/><path d="M503.86,306.89c-2.29-13.75-2.24-28.18-2.18-42.14,0-4.05,0-8.23,0-12.33-.14-14.44-1.12-32.47-6.89-47.57.86,5.41,1.62,10.92,2.27,16.57,2.12,18.34,3.25,38.07,3.65,64,.12,7.85.14,15.36.06,22.64,3.49,15.21,6.82,30.89,4.68,46.57-.08.6-.18,1.19-.28,1.79.09.26.17.53.25.79,1,3.44,2.15,7,2.92,10.59.38,1.73.67,3.47.89,5.22q.19-1.05.36-2.1a52.91,52.91,0,0,1-3.26-13.67c-.3-3.67.38-16,1.42-31.95q-.54-2.5-1.1-5C505.64,315.93,504.62,311.42,503.86,306.89Z" transform="translate(-174.34 -123.2)" style="fill:#333"/><path d="M502,425l.36,19.79.08,4.88c.1,5.41-.47,8.13-2,9.7a5.91,5.91,0,0,1-2.81,1.47,6.48,6.48,0,0,0,3.55-1.66c1.95-1.94,2.64-5.63,2.53-13.61l-.09-6.74q-.18-13.34-.35-26.68c0-.39,0-.79,0-1.18-.25.93-.49,1.88-.66,2.83A56.85,56.85,0,0,0,502,425Z" transform="translate(-174.34 -123.2)" style="fill:#333"/><path d="M494.55,274c.34.76.67,1.53,1,2.31-.06-2.63-.15-5.25-.31-7.85-.22-3.48-.43-6.95-.65-10.42-.16,2.22-.29,4.45-.34,6.67C494.18,267.8,494.3,270.9,494.55,274Z" transform="translate(-174.34 -123.2)" style="fill:#333"/><path d="M501.24,372.58c-.7,2.47-1.43,5-2.08,7.55a207.77,207.77,0,0,0-5.43,36,99.14,99.14,0,0,1,3.82-14.85c.65-1.87,1.37-3.75,2.08-5.57a76.46,76.46,0,0,0,4.19-13.25,49.19,49.19,0,0,0-.37-18C502.76,367.23,502,369.93,501.24,372.58Z" transform="translate(-174.34 -123.2)" style="fill:#333"/><path d="M405.68,309.09a92.62,92.62,0,0,0-2.78,29.21c.61,9.4,2.68,18.71,4.67,27.71.72,3.26,1.45,6.6,2.12,9.94.32-1.15.64-2.3,1-3.42.26-.89.51-1.78.76-2.68-1.31-5-2.59-10.17-3.69-15.29C403.83,336.49,403.17,321.93,405.68,309.09Z" transform="translate(-174.34 -123.2)" style="fill:#333"/><path d="M413.08,404c.26,5.75.3,11.74.11,18q.12,8.43.23,16.85l.09,6.74c.1,8-.6,11.77-2.6,13.75a5.38,5.38,0,0,1-1,.79c-.05.35-.09.68-.13,1h11.52c2.63-16.78,1.93-36.08-2.15-59-.54-3-1.17-6.08-1.85-9.11a34.91,34.91,0,0,1-1.82-4.92,77.51,77.51,0,0,0-1.83,8.85A65.34,65.34,0,0,0,413.08,404Z" transform="translate(-174.34 -123.2)" style="fill:#333"/><path d="M411.29,264.76c0-4.05,0-8.24,0-12.34-.16-15.8-1.29-35.91-8.64-51.77,1.75,14.15,3.52,28.76,2.69,43.34-.16,2.82-.42,5.68-.67,8.45-.37,4-.74,8.15-.82,12.26-.25,13.91,2.92,27.68,6,41,3.67,15.94,7.47,32.42,5.21,48.9a129.7,129.7,0,0,1-4.2,18c-.7,2.46-1.42,5-2.07,7.54-6.44,25.11-6.57,54.8-6.67,81,4.18.08,6.94-.22,8.67-1.94,2-1.94,2.64-5.63,2.54-13.61l-.09-6.74q-.18-13.34-.35-26.68a103.39,103.39,0,0,1,.54-15.22,81.87,81.87,0,0,1,1.92-9.22,21.82,21.82,0,0,1-.62-3.27c-.41-3.74,1.05-19.66,2.73-38.09.11-1.18.22-2.37.33-3.58-2.33-9.86-3.12-18.55-2.41-26.44-.69-3.11-1.36-6.28-1.89-9.46C411.17,293.14,411.23,278.71,411.29,264.76Z" transform="translate(-174.34 -123.2)" style="fill:#333"/><path d="M335.43,220.85a25.17,25.17,0,0,1,5.05-2.14c-1.11-27.71-3.93-53.27-8.11-68.75C334.32,173.72,335.35,197.88,335.43,220.85Z" transform="translate(-174.34 -123.2)" style="fill:#333"/><path d="M338.81,295a571,571,0,0,0,2-66.66,35.49,35.49,0,0,0-4.19,2.85c-.38.31-.79.66-1.21,1q0,3.41-.1,6.77c-.31,15.33-2.15,42.58-3.78,66.61-.16,2.41-.32,4.79-.48,7.12,1.54,20.23,2.66,36.46,2.26,40.83a46.55,46.55,0,0,1-3,11.93,111.28,111.28,0,0,0,6,15.64,32.61,32.61,0,0,0,2.8-7.65c.37-1.78.92-3.95,1.51-6.25l.24-.95c-.59-1.83-1.1-3.61-1.51-5.34C335.65,345.65,337.43,309.27,338.81,295Z" transform="translate(-174.34 -123.2)" style="fill:#333"/><path d="M339.86,388.89l.66,1.38a49.74,49.74,0,0,0,5.17-8.95c.18-.4.35-.81.52-1.22q-.52-1.2-1-2.37A81.86,81.86,0,0,1,339.86,388.89Z" transform="translate(-174.34 -123.2)" style="fill:#333"/><path d="M363.46,461.13h5.61c2.39-25.38-8.54-49.39-18.18-70.58l0-.05c-.82,1-1.64,2-2.45,3-1.12,1.31-2.27,2.67-3.36,4.12-.23.3-.45.63-.68.95C352,415.05,360.23,435.17,363.46,461.13Z" transform="translate(-174.34 -123.2)" style="fill:#333"/><path d="M455.4,461.14h3c-.62-4.56-1.18-9.14-1.71-13.74q-.39,3.72-.92,7.55A41.63,41.63,0,0,1,455.4,461.14Z" transform="translate(-174.34 -123.2)" style="fill:#333"/><path d="M470.21,226.56a196.33,196.33,0,0,1-2.82,23c.15,2.36.27,4.72.33,7.09A148.38,148.38,0,0,0,470.21,226.56Z" transform="translate(-174.34 -123.2)" style="fill:#333"/><path d="M453.48,326c.16-1.44.33-2.88.52-4.33,1.34-9.9,2.44-22.27,3.49-34.39-1,4.47-1.95,9.12-2.73,14A127.28,127.28,0,0,0,453.48,326Z" transform="translate(-174.34 -123.2)" style="fill:#333"/><path d="M460.67,388.27c.62,8.5,1,16.6,1.45,24.43.49,9.39,1,18.49,1.76,27.82a445.85,445.85,0,0,0,2.8-48.89,184.22,184.22,0,0,0-1.91-29.92c-1.09-6.76-2-15.14-2.85-23.43C460.39,355,459.46,371.85,460.67,388.27Z" transform="translate(-174.34 -123.2)" style="fill:#333"/><path d="M433.87,263.37c0-.15,0-.31,0-.47q-1.53,5.75-2.76,11.71A47.11,47.11,0,0,0,433.87,263.37Z" transform="translate(-174.34 -123.2)" style="fill:#333"/><path d="M434,426.55c.49,3.39.87,6.82,1.14,10.27.56-3.78,1-7.6,1.3-11.44-1.23-2.23-2.47-4.37-3.72-6.44C433.2,421.47,433.64,424,434,426.55Z" transform="translate(-174.34 -123.2)" style="fill:#333"/><path d="M436.45,407.78c-.08-1-.17-1.94-.28-2.91-1.55-12.86-6-24.95-10.25-36.65l-.09-.23c.48,8.91,1.27,17.31,2.38,25.39C430.41,397.9,433.35,402.74,436.45,407.78Z" transform="translate(-174.34 -123.2)" style="fill:#333"/><path d="M446.5,329.26c-2.91-15.56-5.28-33.82-.81-51.3,2.26-8.85,3.83-17.79,5.34-26.44,1.8-10.26,3.66-20.86,6.68-31.3-7.11,10.26-9.65,22.05-12,35.26-4.16,23.38-6.95,43.06-7,63.1a119.46,119.46,0,0,0,.83,15.9c.49,3.8,1.24,7.63,2,11.34.27,1.37.55,2.79.82,4.19a229.29,229.29,0,0,1,3.94,39.84q0,3.21,0,6.46c.09.45.2.91.29,1.36a221.9,221.9,0,0,1,4.07,35.71c.3.71.59,1.41.87,2.12l.12-1.64c.57-7.74,1.15-15.69,1.74-23.44-1-15.5-1.53-31.12-1.56-46.77,0-2.43,0-5,0-7.57-.88-4.84-1.86-9.65-2.83-14.4C448.13,337.61,447.27,333.4,446.5,329.26Z" transform="translate(-174.34 -123.2)" style="fill:#333"/><path d="M504,382.53a75.26,75.26,0,0,1-4.2,13.29c-.7,1.82-1.42,3.7-2.07,5.57-6.44,18.52-6.57,40.41-6.67,59.75,4.68.07,7.55-.22,9.22-1.89,1.52-1.53,2.08-4.21,2-9.56l-.09-4.88L501.83,425a57.39,57.39,0,0,1,.55-11.25,55.24,55.24,0,0,1,2.69-8.94c.46-1.27.94-2.59,1.36-3.89a63.78,63.78,0,0,0,1.71-33.15c-.77-3.58-1.87-7.14-2.93-10.57-1-3.23-2-6.56-2.77-9.91a102.53,102.53,0,0,1-2.15-20.63c-.27,7.14-.67,14-1.18,20.74C502.68,358.88,506.2,370.7,504,382.53Z" transform="translate(-174.34 -123.2)" style="fill:#333"/><path d="M491.62,268.92c1.74,10.43,3.5,21.21,2.68,32-.16,2.08-.42,4.19-.67,6.23-.37,3-.74,6-.82,9.05,0,1.42,0,2.83.09,4.24a306.91,306.91,0,0,0,2.64-43.53A45.94,45.94,0,0,0,491.62,268.92Z" transform="translate(-174.34 -123.2)" style="fill:#333"/><path d="M421.45,295.18c1.11-2.35,2.28-4.66,3.44-6.94.61-1.2,1.23-2.41,1.84-3.63-1-21.36-3.88-41.25-8.23-53.12A490,490,0,0,1,421.45,295.18Z" transform="translate(-174.34 -123.2)" style="fill:#333"/><path d="M414.9,384.44c.79,7.28,6,15.36,11.93,24.7,3.09,4.82,6.44,10.07,9.64,15.87a109.29,109.29,0,0,0,0-16.78c-4.66-7.56-9-14.71-11-21-1.94-6-2.36-16.23-2.12-26.16-.5-1.41-1-2.82-1.48-4.22-1.61-4.73-2.91-9.21-3.94-13.47-.09,1-.19,2-.28,3C416,364.81,414.5,380.71,414.9,384.44Z" transform="translate(-174.34 -123.2)" style="fill:#333"/><path d="M449.77,461.14h5.43c1.2-9.37-.95-18.49-4.59-27.22A225.24,225.24,0,0,1,449.77,461.14Z" transform="translate(-174.34 -123.2)" style="fill:#333"/><path d="M202.26,380c-2-20.8-5.74-42.2-19.52-58.11a103.29,103.29,0,0,1,14.54,42.71c1.35,12.81.28,25.82-.76,38.4-.39,4.73-.8,9.62-1.06,14.42-.06,1-.17,2.37-.31,4-.77,9.35-2.39,28.78,2.58,37.16v0l.92,2.6,10.57,0c-.06-.3-.1-.61-.15-.91s-.28-.85-.47-1.39c-1.05-3-2.81-8.09-1.8-14.17q.38-2.31.6-4.68,0-5.34.34-11c-.24-9.18-1.58-18.79-3-28.75C203.86,393.68,202.91,386.87,202.26,380Z" transform="translate(-174.34 -123.2)" style="fill:#333"/><path d="M295.18,291q-1.26-4.36-2.38-8.76c-.05.45-.09.91-.14,1.36-.57,5.34-1.46,10.72-2.32,15.92-.32,1.92-.65,3.91-1,5.87-.4,2.52-.77,5.06-1.12,7.6q.67,4.19,1.17,8.39c1.39-2.49,2.93-5.06,4.75-7.81l.21-.32a73.17,73.17,0,0,0,4.94-8.23q-1-3.35-2-6.63C296.64,295.93,295.88,293.43,295.18,291Z" transform="translate(-174.34 -123.2)" style="fill:#333"/><path d="M282.66,205.61a.06.06,0,0,0-.05,0c-2.42,1.52-3.31,54,.27,77.61.39-2.36.77-4.73,1.14-7.08,1.3-8.28,2.21-15.67,2.83-22.31a321.71,321.71,0,0,1-4.16-48.24Z" transform="translate(-174.34 -123.2)" style="fill:#333"/><path d="M293.91,453.29c-.48,2.57-.94,5.16-1.31,7.84h1.91C294.27,458.55,294.08,455.93,293.91,453.29Z" transform="translate(-174.34 -123.2)" style="fill:#333"/><path d="M300,373c2.81-14.28,5.71-29.05,4.42-43.69a99.51,99.51,0,0,0-2.11-12.91A118.21,118.21,0,0,0,295.16,336a113.41,113.41,0,0,1-5.47,16.33c-.62,8.17-1.63,16.3-2.62,24.29-.58,4.71-1.18,9.58-1.69,14.37.61,12.51,1.68,25.58,3.21,39.48a138.52,138.52,0,0,1,5.56-15.85A291,291,0,0,1,297.74,385C298.43,381,299.23,376.91,300,373Z" transform="translate(-174.34 -123.2)" style="fill:#333"/><path d="M274.56,237a308.34,308.34,0,0,0-7.15-37.06c-7.52-28.73-9.63-45.22-11-68.1-.73,22.62,3.11,45.21,6.82,67.06,3.84,22.55,7.46,43.85,5.43,62.41-.77,7.08-1.48,15.32-2.23,24-1.11,12.75-2.25,25.92-3.66,36.36-2,14.84-2.26,29.53-2.24,41.95q0,6.78.16,13.56a174.86,174.86,0,0,1,8.11-17.85c.62-13.87,2.09-27.79,3.54-41.44C275.18,291.17,278.11,263.5,274.56,237Z" transform="translate(-174.34 -123.2)" style="fill:#333"/><path d="M274.54,461.13c-2.42-17.09-3.21-32.31-4.05-48.42-.21-4.14-.44-8.35-.69-12.66-2.69,11.65-4.07,27.95-5,42.09.69,6.36,1.43,12.7,2.29,19Z" transform="translate(-174.34 -123.2)" style="fill:#333"/><path d="M305,160.82c5.62,29.32,7.72,58.14,9.59,88.28.46-1.21,1-2.64,1.76-4.4s1.42-3.24,2.2-4.78c0-1.74,0-3.49,0-5.23-.39-4.53-.84-8.93-1.34-13.25A349.66,349.66,0,0,0,305,160.82Z" transform="translate(-174.34 -123.2)" style="fill:#333"/><path d="M312.19,401.81a204.78,204.78,0,0,0-15.41,39.05c-.38,6.79-.56,13.56-.46,20.27h12.87a.76.76,0,0,1,0-.15,139.63,139.63,0,0,1-.4-21.77c.2-8.9.82-17.86,1.89-26.59C311.11,409,311.64,405.41,312.19,401.81Z" transform="translate(-174.34 -123.2)" style="fill:#333"/><path d="M306.5,365.89c-1.85,11-3.71,22.2-5.33,33.41,1.91-3.84,3.85-7.62,5.76-11.3,3.95-7.67,7.76-15,10.54-21.88,2.71-23.56,3.79-49,3.39-78.93-.58-5.57-1-11.38-1.4-17.34-.91,3.68-1.83,7.18-3.33,11.69C316.11,308.25,311.43,336.37,306.5,365.89Z" transform="translate(-174.34 -123.2)" style="fill:#333"/><path d="M346.94,370.9c3.23-17.33,2.91-27.12,2.42-41.94l-.09-2.61c-.6-18.58-1.22-37.77-5.2-56.27-.25,14.79,0,25.56.23,36,.28,12.7.55,24.7-.07,42.75-.2,5.8-2,12.83-3.44,18.48-.58,2.29-1.13,4.46-1.5,6.24-1.86,9-10,19.54-17.2,28.89-5.11,6.63-9.52,12.36-10.28,15.85a140.37,140.37,0,0,0-2.42,42.87h4c-.24-16,4.35-32.18,8.73-42,.21-.46.42-.92.64-1.37.87-2.75,2.87-6.27,5.37-10.3,1-1.66,2-3.27,3.05-4.8l.39-.6C337.87,392.19,345.05,381,346.94,370.9Z" transform="translate(-174.34 -123.2)" style="fill:#333"/><path d="M290.14,299.45c.86-5.2,1.75-10.58,2.33-15.91a202.16,202.16,0,0,0,1-22.3c-.11-28.1-3.38-55.69-8.27-88.47-2.76-18.58-5.75-35.15-14.15-49.57,3.57,14.69,5.76,29.6,7.88,44,1.78,12.13,3.62,24.67,6.27,37.07,5.24,24.49,2.46,50.09-.95,71.89-.91,5.82-1.92,11.72-2.9,17.43-3,17.67-6.16,35.94-6.7,54.14,0,.32,0,.65,0,1q1.5-2.64,3-5.16c2.78-4.74,4.89-8.91,6.94-12.95.63-1.23,1.24-2.44,1.87-3.66q1.08-10.87,2.77-21.65C289.49,303.36,289.82,301.37,290.14,299.45Z" transform="translate(-174.34 -123.2)" style="fill:#333"/><path d="M282.37,368.32c-2.25,4.7-4.53,9.48-6.63,14.4l.12,1.77c.82,12.55,1.62,25.67,2.39,38.36s1.57,25.75,2.39,38.28h4.93A81.21,81.21,0,0,1,288.45,431a586.46,586.46,0,0,1-3.91-67.19Q283.46,366.05,282.37,368.32Z" transform="translate(-174.34 -123.2)" style="fill:#333"/><path d="M231,334a85.39,85.39,0,0,0-3.4-30.68c3.06,13.39,2.32,28.59-2.29,47.5-1.29,5.3-2.8,10.61-4.34,15.83.3.93.6,1.85.89,2.77.38,1.18.77,2.37,1.15,3.57.79-3.46,1.65-6.93,2.5-10.31C227.87,353.38,230.29,343.75,231,334Z" transform="translate(-174.34 -123.2)" style="fill:#333"/><path d="M219.06,402a60.58,60.58,0,0,0-.62-7.27,77.66,77.66,0,0,0-2.57-10.6c-1.2,4.3-2.33,8.64-3.29,13,.83,5.88,1.86,11.59,3.11,17.05.16.72.32,1.46.49,2.22.69,3.24,1.42,6.6,2.58,8.54a.86.86,0,0,1,.1.16c0-1.5,0-3,.07-4.49Q218.6,410.9,219.06,402Z" transform="translate(-174.34 -123.2)" style="fill:#333"/><path d="M209.43,461.16H223l-.15-1.06a6.37,6.37,0,0,1-1.51-1.08c-2.1-2.1-2.88-6-2.76-14l.06-3.93c0-1,0-2,0-3l-.28-.68c-.49-1.18-1-2.38-1.5-3.59-2.49-6-5.17-12.34-7.41-19.34C207,432.06,207,447.43,209.43,461.16Z" transform="translate(-174.34 -123.2)" style="fill:#333"/><path d="M221.68,369.5a121.13,121.13,0,0,1-4.92-18.61c-2.65-17.07,1.81-34.12,6.12-50.61,3.6-13.78,7.32-28,7-42.42-.09-4.25-.53-8.54-1-12.69-.29-2.86-.6-5.82-.79-8.74-1-15.13,1.12-30.27,3.17-44.93-8.66,16.42-10,37.27-10.18,53.65,0,4.24,0,8.58,0,12.76.07,14.45.14,29.38-2.56,43.61-.89,4.69-2.09,9.36-3.26,13.88-1.24,4.82-2.52,9.81-3.43,14.83a106.14,106.14,0,0,0,2,46.49c.5,1.84,1.06,3.69,1.6,5.47a90.07,90.07,0,0,1,3.16,12.53,94.28,94.28,0,0,1,.64,15.74q-.12,7.49-.23,15c1.28,2.08,2.61,4,3.9,5.89l1.51,2.2a221,221,0,0,1,4.07-35.83,161.26,161.26,0,0,0-4.41-20.37C223.36,374.69,222.51,372.05,221.68,369.5Z" transform="translate(-174.34 -123.2)" style="fill:#333"/><path d="M218.76,445.05c-.12,7.89.64,11.77,2.7,13.82a6.81,6.81,0,0,0,3.09,1.68,116,116,0,0,0-3.39-15.87c-.69-2.19-1.51-4.18-2.3-6.09,0,.84,0,1.68,0,2.52Z" transform="translate(-174.34 -123.2)" style="fill:#333"/><path d="M336.48,231.06a52.32,52.32,0,0,1,7.36-4.68c5.47-3,10.63-5.94,12.79-12.34-3,2.63-6.81,3.18-10.47,3.72-1.42.21-2.89.43-4.29.76-5.3,1.26-10.31,4.41-14.89,9.37-.46.5-.92,1-1.36,1.55l0,1.85c.09,4.11.31,9.06.61,14.56.33-.8.67-1.58,1-2.31C329.89,238,332.9,234,336.48,231.06Z" transform="translate(-174.34 -123.2)" style="fill:#333"/><path d="M312.74,258.32c-.09,2-.22,4.64-.81,9.25-.48,3.84-7.84,25.07-10.26,32.05l-.59,1.71c-1.54,4.46-4.07,8.29-6.52,12l-.21.32a158.08,158.08,0,0,0-9.63,17.07c-2.05,4-4.17,8.21-7,13-7.89,13.47-16.69,29.36-21.39,47.51-5.17,20-5.06,49.47-4.53,69.95h11.68c.13-2.1.25-4.39.39-6.84,1-17.84,2.49-44.81,7.07-59.46,2.93-9.33,7.13-18.11,11.2-26.59,4.9-10.22,10-20.78,12.78-32.33,2.11-8.65,6.16-17.5,9.74-25.3l.83-1.83c2.19-4.79,4.78-11.83,6.86-17.49.52-1.4,1-2.73,1.45-3.93a143.71,143.71,0,0,0,5.57-18.19c-.56-9.33-.85-19-.9-28.8-.71,1.43-1.39,2.89-2,4.4C313,253.29,312.94,254.26,312.74,258.32Z" transform="translate(-174.34 -123.2)" style="fill:#333"/><path d="M333.09,353.57c.48-5.22-1.23-27.53-3.21-53.35-1.91-24.87-4.07-53.05-4.43-68.93A817.31,817.31,0,0,1,328.88,139c-9.49,30.79-13.05,100.54-7.6,150.28,1.61,14.74,3.7,52.38-.6,68.23-2.49,9.13-7.87,19.56-13.57,30.61-11.32,21.93-24.15,46.78-21.34,73h6.62c4.4-31.27,16.76-54.35,26.69-72.9C326.1,375.12,332.16,363.8,333.09,353.57Z" transform="translate(-174.34 -123.2)" style="fill:#333"/><path d="M235.47,461.12l8.87,0c-3.74-17.4-8-37.1-5.65-56.25,1.55-12.88,6-25,10.26-36.68,1.36-3.72,2.76-7.56,4.05-11.37,6.95-20.46,8.49-36.31,4.85-49.86-1.77-6.62-4.87-12.71-7.87-18.59-3.94-7.75-8-15.76-9-24.94-1.23-11.62,2.67-22.94,6.44-33.89,4.37-12.67,6.08-20.32,6.56-25.61a43.41,43.41,0,0,0,0-6.55c-.14-1.3-.35-2.47-.55-3.63-2.45-13.7-5.6-24.39-9.62-32.66-5.09-10.44-11.67-17-19.58-19.5a63,63,0,0,1,17.51,24.8c4.13,10.93,4.73,23,1.64,33.07a80.08,80.08,0,0,1-4.11,10.07c-1.06,2.3-2.16,4.69-3.09,7.13-7.28,19.22-4.13,41.69.06,64.95,3.19,17.69,6,36.63,4.77,55.32-.89,13.73-4.23,27.14-7.45,40.11-1.69,6.75-3.43,13.74-4.8,20.7a220.72,220.72,0,0,0-4.08,36.09c1.17,1.72,2.33,3.52,3.44,5.5C231,444.45,235.3,459.44,235.47,461.12Z" transform="translate(-174.34 -123.2)" style="fill:#333"/><path d="M454.66,198.9c3.84,22.55,7.46,43.85,5.43,62.41-.77,7.08-1.48,15.32-2.23,24-1.11,12.74-2.24,25.91-3.66,36.35-2,14.84-2.26,29.53-2.24,41.95a737.81,737.81,0,0,0,6.59,97.48H466c-2.42-17.09-3.21-32.31-4.05-48.42-.41-7.83-.83-15.93-1.45-24.42-1.71-23.16.84-47.16,3.3-70.37,2.84-26.75,5.77-54.42,2.22-80.92a308.34,308.34,0,0,0-7.15-37.06c-6.15-23.49-8.68-38.81-10.15-56.12l-.81.8C448.55,162.94,451.65,181.16,454.66,198.9Z" transform="translate(-174.34 -123.2)" style="fill:#333"/><path d="M447.83,142.53l.72-.33c-.26-3.34-.5-6.77-.71-10.36C447.72,135.41,447.73,139,447.83,142.53Z" transform="translate(-174.34 -123.2)" style="fill:#333"/><path d="M488.85,461.13a267.57,267.57,0,0,1,1.49-48.51c.83-6.81,2-13.69,3-20.34.83-5.12,1.7-10.41,2.42-15.63,3.76-27,5.25-56,4.7-91.27-.4-25.88-1.52-45.6-3.65-63.94a349.66,349.66,0,0,0-12.21-60.62c6.16,32.16,8.09,63.72,10.13,97.08q.32,5.27.65,10.54c1.91,30.57-3.52,63.06-9.26,97.45-2.77,16.62-5.59,33.54-7.56,50.45,1.27,14,3,28.81,5.35,44.79Z" transform="translate(-174.34 -123.2)" style="fill:#333"/><path d="M476,361.15a382.73,382.73,0,0,1,4.63-55.84c.31-1.95.64-3.94,1-5.86.86-5.2,1.75-10.58,2.32-15.91a199.61,199.61,0,0,0,1-22.3c-.11-28.1-3.38-55.69-8.27-88.47-2.76-18.58-5.75-35.15-14.15-49.57,3.57,14.69,5.76,29.6,7.88,44,1.77,12.13,3.62,24.67,6.27,37.07,5.24,24.49,2.46,50.09-1,71.89-.91,5.82-1.92,11.72-2.9,17.43-3,17.67-6.16,35.94-6.7,54.14-.36,12.24.45,24.68,1.24,36.71.82,12.57,1.62,25.69,2.39,38.38s1.57,25.75,2.39,38.28h11.68C478.19,422.68,475.72,390.91,476,361.15Z" transform="translate(-174.34 -123.2)" style="fill:#333"/><path d="M449.57,461.16a222.54,222.54,0,0,0-3.25-63.45c-1.37-7-3.11-13.95-4.79-20.7-3.23-13-6.57-26.38-7.45-40.11-1.21-18.69,1.57-37.64,4.76-55.32,4.19-23.26,7.34-45.73.06-64.95-.93-2.45-2-4.83-3.1-7.14a80.79,80.79,0,0,1-4.1-10.06c-3.08-10.09-2.49-22.15,1.64-33.07a63,63,0,0,1,17.51-24.8c-7.91,2.5-14.49,9.06-19.58,19.5-4,8.27-7.17,19-9.61,32.66-2.18,12.17,2,24.18,6,35.79,3.77,11,7.67,22.27,6.44,33.89-1,9.18-5.06,17.19-9,24.94-3,5.88-6.1,12-7.87,18.59-3.64,13.55-2.1,29.4,4.85,49.86,1.29,3.81,2.69,7.65,4.05,11.36,4.29,11.71,8.72,23.81,10.26,36.69,2.31,19.14-1.91,38.85-5.65,56.25Z" transform="translate(-174.34 -123.2)" style="fill:#333"/><path d="M222.79,431.43c-1.39-2-2.83-4.1-4.2-6.37-1.18-2-1.91-5.35-2.61-8.61-.16-.75-.32-1.5-.49-2.22a218.5,218.5,0,0,1-4.68-31.46c-.52-6.63-.78-13.47-1-20.08-.23-6-.47-12.14-.89-18.14-1.08-15.25-3.32-26.57-6.66-33.63-3.95-8.37-9.23-10.42-14.34-12.41-4.74-1.85-9.64-3.75-13.55-10.61.12,8.53,3.18,18.75,9.79,22.69a36.47,36.47,0,0,0,3.65,1.82c3.55,1.6,7.22,3.25,10.08,8.87,3.44,6.76,5.41,18.83,5.87,35.86.08,3.31.13,6.71.17,10,.13,9.93.27,20.2,1.62,29.62,2.06,14.37,7.1,26.4,11.55,37q.77,1.82,1.5,3.6l.31.74c.85,2,1.73,4.16,2.47,6.51a120.55,120.55,0,0,1,3.5,16.51h10.43c-.11-1.34-4.44-16.51-7.37-21.74C226.27,436.47,224.5,433.91,222.79,431.43Z" transform="translate(-174.34 -123.2)" style="fill:#333"/><path d="M392.44,306.33c-4.74-.77-10.27-1.27-15.65.5h0c-8.79,2.78-13.79,10.48-16.43,16.46-3.6,8.13-5.45,18.77-7.24,29s-3.65,20.91-7.24,29.06c-2.63,6-6.05,10.26-9.35,14.42-1.17,1.47-2.38,3-3.53,4.56a101.78,101.78,0,0,0-10.73,18.84c-4.37,9.8-8.95,25.94-8.72,41.87l10.78.07c2-16.65,5.73-32.68,10.15-44a82.78,82.78,0,0,1,10.42-19.71c1.1-1.46,2.25-2.82,3.37-4.13a68.9,68.9,0,0,0,4.77-6.11c4.91-7.35,8.51-18.49,9.87-30.56.37-3.23.61-6.67.85-10,.66-9.36,1.34-19,4.79-25.13,2.27-4,5.33-5.59,8-7l4.89-2.57C385.05,310.08,388.76,308.12,392.44,306.33Z" transform="translate(-174.34 -123.2)" style="fill:#333"/><path d="M519.39,368.07c.05.16.1.31.16.46l-.09-.94C519.43,367.75,519.41,367.91,519.39,368.07Z" transform="translate(-174.34 -123.2)" style="fill:#333"/><path d="M526.66,344.9a107.92,107.92,0,0,1,5-12.82c-.07-.4-.15-.79-.23-1.17a69.11,69.11,0,0,0-5.65,11.32C526.07,343.11,526.37,344,526.66,344.9Z" transform="translate(-174.34 -123.2)" style="fill:#333"/><path d="M513.91,445.25a30.35,30.35,0,0,1-1.53,13.69,9.13,9.13,0,0,0-.55,2.22l9,0,.79-2.52c4.23-8.1,2.86-26.88,2.2-35.91-.12-1.55-.21-2.88-.26-3.85-.23-4.64-.57-9.36-.91-13.92-.13-1.87-.27-3.75-.4-5.63-1.35-2.95-2.69-5.8-4-8.53-.35-.74-.69-1.47-1-2.2-.48,4.67-1,9.27-1.59,13.75C513.76,417.59,512,432,513.91,445.25Z" transform="translate(-174.34 -123.2)" style="fill:#333"/><path d="M558,348.36c-.93,4.85-2.07,9.66-3.19,14.38-1,4.18-2,8.49-2.88,12.76-.14.71-.27,1.43-.41,2.14q0,6.58-.46,13.1c-.53,8.21-.89,16-1.24,23.59-.18,4.13-.37,8.2-.59,12.26,1,1.64,2,3.21,3,4.73s2,3.13,3,4.8c2-22.78,3-45.95,3-69.19C558.3,361.17,558.25,354.9,558,348.36Z" transform="translate(-174.34 -123.2)" style="fill:#333"/><path d="M552.68,461.13c.16-1.38.31-2.77.46-4.15a100.11,100.11,0,0,0-2.62-12.3c-.09-.3-.18-.58-.27-.86q.87,8.34,2.18,17.31Z" transform="translate(-174.34 -123.2)" style="fill:#333"/><path d="M553.27,291.27c-.64-8.43-1.25-16.39-1.91-23.24-1.72-17.93,1.36-38.51,4.63-60.3,3.15-21,6.4-42.71,5.83-64.44-1.17,21.91-3,37.82-9.36,65.43a333.28,333.28,0,0,0-6.09,35.81c-3,25.62-.53,52.36,1.89,78.21,1.22,13.13,2.47,26.52,3,39.86,1.05-3.92,2.08-7.86,3-11.8,1.32-5.76,2.29-11.16,2.94-16.29-.22-2.69-.48-5.4-.81-8.12C555.18,316.31,554.21,303.58,553.27,291.27Z" transform="translate(-174.34 -123.2)" style="fill:#333"/><path d="M528.11,388.92a160.8,160.8,0,0,0-.26-24.34,107.83,107.83,0,0,0-10.66-37c.43,14.84,1.3,28.59,2.63,41.73C522,375.47,525,382.07,528.11,388.92Z" transform="translate(-174.34 -123.2)" style="fill:#333"/><path d="M521.26,274.92q.29-5.09.55-10.16c1.73-32.15,3.37-62.55,8.59-93.53a377.87,377.87,0,0,0-10.33,58.27c-.43,4.17-.8,8.43-1.14,12.81.07,17.57-.57,35.12-2,50.75,0,1.43,0,2.84,0,4.25.79.36,1.58.69,2.37,1s1.29.53,1.93.82C520.85,290.93,520.82,282.86,521.26,274.92Z" transform="translate(-174.34 -123.2)" style="fill:#333"/><path d="M525.08,340.4c-1.17-8.86-2.18-17.59-2.91-26.17a35.07,35.07,0,0,0-3.15-1.64c-.7-.33-1.41-.69-2.12-1.07,0,4.67.11,9.22.23,13.68A69.86,69.86,0,0,1,525.08,340.4Z" transform="translate(-174.34 -123.2)" style="fill:#333"/><path d="M529.13,461.13l-.84-2.53a17.43,17.43,0,0,1-1.17-2.68c-.07,1.75-.14,3.49-.24,5.21Z" transform="translate(-174.34 -123.2)" style="fill:#333"/><path d="M525.62,414.26c.16,1.46.29,2.93.43,4.41,0-.48.06-.93.08-1.3.14-2.69.33-5.41.52-8.11-.76-1.83-1.54-3.61-2.31-5.36C524.8,407.35,525.25,410.81,525.62,414.26Z" transform="translate(-174.34 -123.2)" style="fill:#333"/><path d="M546.28,351.57c-.45-17.58-3.12-35.24-5.7-52.32-.84-5.52-1.7-11.22-2.47-16.84a322.5,322.5,0,0,1-3.21-34.82,159.88,159.88,0,0,1,2.4-34.65c2.26-12,3.83-24.1,5.34-35.82,1.8-13.91,3.66-28.29,6.69-42.46-7.12,13.91-9.66,29.89-12,47.81-4.16,31.68-7,58.34-7,85.49,0,8.46.24,15.3.83,21.56.49,5.14,1.25,10.33,2,15.35.27,1.87.55,3.79.82,5.69.21,1.53.4,3.07.6,4.61,2.26,7.05,3.82,16.9,4.65,29.37.4,6,.62,12.17.84,18.14.24,6.61.49,13.45,1,20.07q.53,7,1.4,13.78c.9-4.25,1.94-8.48,3-12.67C546,373.24,546.56,362.34,546.28,351.57Z" transform="translate(-174.34 -123.2)" style="fill:#333"/><path d="M539.26,415c0-.32.08-.63.13-.95-1-3.33-1.87-6.82-2.61-10.44-.08,1.44-.17,2.89-.27,4.36C537.47,410.29,538.38,412.64,539.26,415Z" transform="translate(-174.34 -123.2)" style="fill:#333"/><path d="M537.21,444.72c-1,6,.7,11.07,1.69,14.07l.08.26a129.63,129.63,0,0,1-1.34-16.65l-.09-.36C537.45,442.94,537.34,443.83,537.21,444.72Z" transform="translate(-174.34 -123.2)" style="fill:#333"/><path d="M510.11,150c2.47,30.12,3.47,60.89,2.91,89.07-.25,12.63-1.54,33.35-2.9,53.69a20,20,0,0,0,6.25,4.34c.06-.71.12-1.4.18-2C521.19,247.05,518.17,179.8,510.11,150Z" transform="translate(-174.34 -123.2)" style="fill:#333"/><path d="M506.51,357.19c.8,9.89,6,20.83,11.94,33.5,2.64,5.57,5.47,11.58,8.24,18.11.14-2,.29-3.92.44-5.85.35-4.49.7-9,1-13.6-4.65-10.23-9-19.89-11-28.38s-2.39-23.5-2.07-37.59c-.45-.81-.91-1.62-1.38-2.42l.16-.11c.43.49.84,1,1.24,1.51.11-4,.26-8,.45-11.67a18.24,18.24,0,0,1-6-7.65l-.18,2.6C507.57,330.59,506.11,352.14,506.51,357.19Z" transform="translate(-174.34 -123.2)" style="fill:#333"/><path d="M538,427.08q.4-5.67,1.18-11.68c-.93-2.5-1.91-5-2.92-7.43C537.11,414.51,537.79,420.89,538,427.08Z" transform="translate(-174.34 -123.2)" style="fill:#333"/><path d="M590.68,459.88c2.65-1.8,3.42-5.81,3.31-14.29q-.19-14-.37-28c-1.38,12.46-2.1,26.15-2.65,36.67C590.87,456.26,590.77,458.13,590.68,459.88Z" transform="translate(-174.34 -123.2)" style="fill:#333"/><path d="M599.85,334.62c-1.5-9.41-4.14-18.37-5.7-27.75-3-17.73-2-36.23-2.19-54.45s-1.74-37.29-8.91-52.38c1.79,14.53,3.59,29.24,2.76,43.94-.39,6.92-1.36,13.77-1.49,20.71-.56,30.71,15.33,59.74,11.2,89.89-.33,2.48-.81,4.9-1.36,7.29,2.27-4.81,4.65-9.39,7-13.74A114.22,114.22,0,0,0,599.85,334.62Z" transform="translate(-174.34 -123.2)" style="fill:#333"/><path d="M693.35,326.66c-11.66,15.36-14.85,36-16.53,56-.56,6.68-1.37,13.27-2.16,19.63-1.18,9.63-2.32,18.91-2.52,27.78.21,3.65.3,7.19.29,10.63.13,1.52.29,3,.51,4.52a30.33,30.33,0,0,1-1.54,13.69c-.16.51-.3,1-.4,1.34l-.12.88,9,0,.79-2.52c4.23-8.1,2.85-26.89,2.19-35.92-.11-1.54-.21-2.88-.26-3.84-.23-4.64-.57-9.36-.9-13.92-.89-12.16-1.8-24.74-.65-37.12A109.26,109.26,0,0,1,693.35,326.66Z" transform="translate(-174.34 -123.2)" style="fill:#333"/><path d="M658.06,370.88c.29,1.35.56,2.69.84,4,.59-2,1.12-4.16,1.6-6.34q-.64-2.54-1.29-5.1C658.9,365.8,658.52,368.25,658.06,370.88Z" transform="translate(-174.34 -123.2)" style="fill:#333"/><path d="M655.1,309.1a92.53,92.53,0,0,0-2.78,29.2,129.67,129.67,0,0,0,2.23,16.19,48.35,48.35,0,0,0,.56-5.66c0-1.51.09-3,.13-4.4C653.12,330.91,653.07,319.44,655.1,309.1Z" transform="translate(-174.34 -123.2)" style="fill:#333"/><path d="M668.53,402.16c-1-5.61-2.29-11.2-3.66-16.72-.36.65-.73,1.29-1.11,1.89-.74,1.18-1.52,2.28-2.31,3.33,2.28,19.92,1.52,42.69-2.3,70.5h11.53C673.31,444.38,672.61,425.08,668.53,402.16Z" transform="translate(-174.34 -123.2)" style="fill:#333"/><path d="M580.24,385c.66-4,1.41-8,2.14-12,2.64-14.28,5.37-29.05,4.15-43.7-.87-10.56-3.81-20.93-6.64-31-.68-2.42-1.39-4.92-2.06-7.38a340,340,0,0,1-11.75-85.35H566c-1.07.65-1.94,14-2,31.15-.08,19.57.83,37.39,2.42,47.67.71,4.57,1.56,9.21,2.37,13.69,1.67,9.23,3.41,18.78,4.09,28.31,1.21,16.73-.77,33.72-2.68,50.14-.57,4.9-1.16,10-1.66,15-1.37,13.75-2.11,27.76-2.19,41.63,0,1.75-.12,3.73-.25,5.82-.31,5.27-.66,11.24.63,15.48l.14.45c1.1,3.61,1.89,6.21,3.69,6.21h6.62A315.78,315.78,0,0,1,580.24,385Z" transform="translate(-174.34 -123.2)" style="fill:#333"/><path d="M645.24,259.54c4.56-18.79,10.08-25.25,13.84-28.48a49.25,49.25,0,0,1,6.93-4.68c5.14-3,10-5.93,12-12.33-2.84,2.62-6.4,3.17-9.85,3.71-1.34.21-2.72.43-4,.76-5,1.26-9.71,4.41-14,9.37a57.92,57.92,0,0,0-9.86,16.88c-.71,1.84-1.27,3.31-1.71,4.55.49,9,1.17,19.29,1.9,29.73,1.31-4.44,2.11-8,3-12.08C644,264.7,644.56,262.35,645.24,259.54Z" transform="translate(-174.34 -123.2)" style="fill:#333"/><path d="M634.22,297.57c-.23-3.12-.46-5.88-.69-8.13q0,5.06.05,9.94C633.79,298.78,634,298.18,634.22,297.57Z" transform="translate(-174.34 -123.2)" style="fill:#333"/><path d="M625.77,301.32c-1.45,4.47-3.84,8.3-6.14,12l-.2.32a159,159,0,0,0-9.06,17.07c-1.93,4-3.93,8.21-6.54,13-7.43,13.47-15.72,29.36-20.14,47.52-4.87,20-4.77,49.47-4.27,69.95h11c.11-2.1.23-4.4.36-6.84.93-17.84,2.34-44.81,6.66-59.46,2.75-9.33,6.71-18.11,10.54-26.59,4.61-10.22,9.38-20.78,12-32.33a121.94,121.94,0,0,1,6.53-19.1c.86-8,1.51-15.8,1.86-23.53-.85,2.6-1.58,4.84-2.08,6.39C626.07,300.39,625.89,301,625.77,301.32Z" transform="translate(-174.34 -123.2)" style="fill:#333"/><path d="M618.37,160.93c5.8,32.13,7.61,63.65,9.52,97,.2,3.5.41,7,.61,10.52,1.8,30.57-3.3,63.06-8.71,97.45-1.73,11-3.48,22.18-5,33.38,1.8-3.83,3.62-7.6,5.41-11.27,3.72-7.67,7.3-15,9.92-21.87,2.56-23.57,3.57-49,3.19-78.94-1.57-16.16-2.27-34.32-2.2-52.5-.37-4.53-.79-8.93-1.26-13.25A369.1,369.1,0,0,0,618.37,160.93Z" transform="translate(-174.34 -123.2)" style="fill:#333"/><path d="M625.14,401.85a212.38,212.38,0,0,0-14.5,39c-.35,6.79-.52,13.56-.43,20.27h12.1V461a148.78,148.78,0,0,1-.38-21.77c.19-8.9.77-17.86,1.78-26.59C624.13,409,624.62,405.43,625.14,401.85Z" transform="translate(-174.34 -123.2)" style="fill:#333"/><path d="M644.82,353.57c.44-5.22-1.17-27.52-3-53.35-1.79-24.87-3.83-53.05-4.16-68.93A867.1,867.1,0,0,1,640.85,139c-8.93,30.82-12.27,100.52-7.14,150.22,1.52,14.74,3.49,52.38-.57,68.23-2.34,9.13-7.41,19.56-12.77,30.61-10.66,21.93-22.74,46.78-20.09,73h6.22c4.14-31.27,15.78-54.35,25.13-72.9C638.24,375.12,643.94,363.8,644.82,353.57Z" transform="translate(-174.34 -123.2)" style="fill:#333"/><path d="M532.72,380c-1.86-20.78-5.39-42.16-18.34-58.07a107.78,107.78,0,0,1,13.67,42.67c1.27,12.81.26,25.82-.72,38.41-.37,4.72-.75,9.61-1,14.41-.05,1-.16,2.38-.28,4-.73,9.34-2.25,28.77,2.42,37.15v0l.86,2.6,9.95,0c0-.27-.08-.56-.12-.83s-.27-.9-.46-1.47c-1-3-2.65-8.09-1.7-14.17.24-1.58.43-3.17.57-4.78,0-3.41.11-6.92.32-10.51-.2-9.29-1.47-19-2.8-29.13C534.24,393.68,533.34,386.87,532.72,380Z" transform="translate(-174.34 -123.2)" style="fill:#333"/><path d="M551.75,375.47c.86-4.28,1.89-8.6,2.88-12.78,2.2-9.31,4.49-18.94,5.16-28.67a90.1,90.1,0,0,0-3.16-30.52c2.85,13.36,2.14,28.51-2.18,47.34-1.63,7.08-3.62,14.17-5.54,21-2.31,8.23-4.68,16.71-6.45,25.26.77,5.88,1.75,11.59,2.92,17.05.15.72.31,1.47.46,2.22.66,3.25,1.34,6.6,2.44,8.55.1.19.22.38.33.57C547.69,406.72,548.73,390.36,551.75,375.47Z" transform="translate(-174.34 -123.2)" style="fill:#333"/><path d="M539.49,461.16h12.74c-.93-6.34-1.69-12.42-2.29-18.29-.55-1.64-1.16-3.18-1.74-4.68l-.3-.75-1.41-3.6c-2.34-5.94-4.86-12.32-7-19.31C537.2,432.08,537.18,447.44,539.49,461.16Z" transform="translate(-174.34 -123.2)" style="fill:#333"/><path d="M552.05,431.43c-1.31-2-2.67-4.1-3.95-6.38-1.11-2-1.8-5.34-2.46-8.6-.15-.75-.3-1.5-.46-2.22a231.08,231.08,0,0,1-4.4-31.46c-.49-6.63-.74-13.47-1-20.09-.22-6-.44-12.13-.84-18.13-1-15.25-3.12-26.57-6.26-33.63-3.73-8.37-8.7-10.42-13.5-12.41-4.46-1.85-9.07-3.75-12.75-10.59.15,11.72,4.72,19.82,9.22,22.67a31.66,31.66,0,0,0,3.44,1.82c3.34,1.6,6.79,3.25,9.48,8.87,3.24,6.76,5.1,18.83,5.53,35.86.08,3.31.12,6.7.16,10,.13,9.93.25,20.2,1.52,29.62,1.94,14.37,6.69,26.4,10.88,37,.47,1.21,1,2.41,1.41,3.6l.29.75c.8,2,1.63,4.15,2.33,6.5A129.28,129.28,0,0,1,554,461.13h9.81c-.11-1.34-4.28-16.7-6.94-21.74C555.33,436.47,553.67,433.91,552.05,431.43Z" transform="translate(-174.34 -123.2)" style="fill:#333"/><path d="M657.85,370.9c3-17.33,2.74-27.12,2.28-41.93l-.08-2.62c-.57-18.56-1.15-37.74-4.88-56.22-.24,14.76,0,25.52.21,35.94.26,12.71.52,24.71-.07,42.76-.18,5.8-1.87,12.83-3.23,18.48-.55,2.29-1.07,4.46-1.42,6.24-1.75,8.95-9.42,19.54-16.19,28.88-4.8,6.64-9,12.37-9.68,15.86a149,149,0,0,0-2.27,42.87h3.71a112.28,112.28,0,0,1,8.22-42l.6-1.37a53.24,53.24,0,0,1,5.07-10.31q1.39-2.49,2.85-4.77l.38-.62C649.31,392.2,656.08,381,657.85,370.9Z" transform="translate(-174.34 -123.2)" style="fill:#333"/><path d="M672.89,356.66c.35-3.22.57-6.67.8-10,.62-9.35,1.26-19,4.51-25.12,2.13-4,5-5.6,7.55-7,1.54-.85,3.1-1.72,4.6-2.57,3.39-1.89,6.88-3.85,10.34-5.64-4.46-.77-9.66-1.27-14.72.5h0c-8.27,2.77-13,10.48-15.46,16.46-3.39,8.13-5.13,18.77-6.82,29s-3.43,20.91-6.81,29.06c-2.48,6-5.7,10.26-8.81,14.43-1.1,1.46-2.23,3-3.32,4.55a104.55,104.55,0,0,0-10.1,18.84,111.89,111.89,0,0,0-8.21,41.87l10.14.07c1.92-16.65,5.4-32.68,9.55-44a85.56,85.56,0,0,1,9.81-19.71c1-1.45,2.12-2.81,3.17-4.13a64.42,64.42,0,0,0,4.49-6.11C668.22,379.87,671.61,368.73,672.89,356.66Z" transform="translate(-174.34 -123.2)" style="fill:#333"/></svg>