<?xml version="1.0" encoding="utf-8"?>
<!-- Generator: Adobe Illustrator 23.1.1, SVG Export Plug-In . SVG Version: 6.00 Build 0)  -->
<svg version="1.1" id="Layer_1" xmlns="http://www.w3.org/2000/svg" xmlns:xlink="http://www.w3.org/1999/xlink" x="0px" y="0px"
	 viewBox="0 0 339.9 86.5" style="enable-background:new 0 0 339.9 86.5;" xml:space="preserve">
<style type="text/css">
	.st0{fill:#CACACA;}
	.st1{fill:url(#SVGID_1_);}
	.st2{fill:url(#SVGID_2_);}
	.st3{fill:#15A6FF;}
	.st4{fill:url(#SVGID_3_);}
</style>
<g>
	<path class="st0" d="M29.8,77.4c-3.5,0-7.4-0.5-11.6-1.6c-4.3-1-7.7-2.3-10.3-3.8l5.9-13.5c1.8,1,4.2,2,7.3,2.9s5.8,1.3,8.2,1.3
		c2.6,0,4.7-0.5,6.3-1.6s2.4-2.3,2.4-3.6c0-0.8-0.6-1.7-1.7-2.5c-1.1-0.8-3-2-5.5-3.5l-3-1.8c-4.5-2.6-7.9-4.8-10.4-6.5
		s-4.7-4-6.7-6.7c-2-2.8-2.9-5.9-2.9-9.3c0-3.7,1-7,3.1-9.9s5-5.2,8.7-6.8C23.3,8.9,27.7,8,32.7,8c3.4,0,6.9,0.5,10.5,1.5
		c3.6,1,6.6,2.3,9.2,4l-5.3,12.1c-3.5-1.2-6.1-2-8-2.4s-3.9-0.6-6.1-0.6c-2,0-3.6,0.5-4.8,1.4s-1.8,2-1.8,3.3c0,1,0.5,1.8,1.5,2.6
		s2.7,1.8,5.1,3l3.5,2c4.1,2.4,7.6,4.5,10.3,6.5c2.8,2,5.1,4.4,7,7.1c1.9,2.7,2.9,5.8,2.9,9.2c0,3.8-1.1,7.2-3.2,10.1
		c-2.2,2.9-5.3,5.3-9.3,7C39.9,76.6,35.2,77.4,29.8,77.4z"/>
	<path class="st0" d="M84.2,9.4v66.8H66.3V9.4H84.2z"/>
	<g>
		
			<linearGradient id="SVGID_1_" gradientUnits="userSpaceOnUse" x1="274.9722" y1="40.4145" x2="274.9722" y2="77.0872" gradientTransform="matrix(1 0 0 -1 0 86.8289)">
			<stop  offset="0" style="stop-color:#15A6FF;stop-opacity:0"/>
			<stop  offset="1" style="stop-color:#15A6FF"/>
		</linearGradient>
		<path class="st1" d="M252.4,18.8c6-0.9,12.1-1.4,18.2-1.5c0.7,0,1.3,0,2,0c10.5,0,20.2,1.4,29,4.3c-1.3-2.6-3.1-4.7-5.5-6.5
			c-5.2-3.8-11.8-5.7-19.7-5.7h-28.1v10C249.5,19.2,250.9,19,252.4,18.8z"/>
		
			<linearGradient id="SVGID_2_" gradientUnits="userSpaceOnUse" x1="203.6222" y1="40.4145" x2="203.6222" y2="77.0872" gradientTransform="matrix(1 0 0 -1 0 86.8289)">
			<stop  offset="0" style="stop-color:#15A6FF;stop-opacity:0"/>
			<stop  offset="1" style="stop-color:#15A6FF"/>
		</linearGradient>
		<path class="st2" d="M196.8,32.7c1.5-0.5,3.1-0.9,4.6-1.4c6-1.8,12.5-3.7,19.2-5.6l-6.2-16.3h-17.9l-9.9,26.4
			C190.1,34.7,193.5,33.7,196.8,32.7z"/>
		<path class="st3" d="M333.1,49.3c-1.9-2.3-4-4.5-6.1-6.6c-0.7-0.6-1.3-1.2-2-1.8c-0.2-0.1-0.3-0.3-0.5-0.4
			c-0.3-0.3-0.6-0.5-0.9-0.8c-0.2-0.2-0.4-0.3-0.6-0.5c-0.4-0.3-0.7-0.6-1.1-0.9c-0.4-0.3-0.7-0.6-1.1-0.8c-0.3-0.2-0.5-0.4-0.8-0.6
			c-0.3-0.2-0.5-0.4-0.8-0.6c-0.3-0.2-0.5-0.4-0.8-0.6c-0.3-0.2-0.6-0.4-0.9-0.6c-0.2-0.2-0.4-0.3-0.7-0.5c-0.5-0.3-1-0.7-1.5-1
			c-0.2-0.1-0.4-0.3-0.6-0.4c-0.4-0.2-0.7-0.4-1.1-0.6c-0.2-0.1-0.4-0.3-0.6-0.4c-0.5-0.3-0.9-0.5-1.4-0.8c-0.1-0.1-0.2-0.1-0.3-0.2
			c-0.6-0.3-1.1-0.6-1.7-0.9c-0.2-0.1-0.4-0.2-0.5-0.3c-0.4-0.2-0.9-0.4-1.3-0.6c-0.2-0.1-0.4-0.2-0.5-0.2c-0.6-0.3-1.2-0.5-1.8-0.8
			l0,0c-0.6-0.2-1.1-0.5-1.7-0.7c-0.1,0-0.1-0.1-0.2-0.1l0,0c-9.8-3.8-20.5-5.3-30.9-5.3c-0.6,0-1.3,0-1.9,0
			c-5.9,0.1-11.7,0.6-17.5,1.5c-1.4,0.2-2.9,0.4-4.3,0.7c-0.2,0-0.4,0.1-0.6,0.1l0,0c-1.2,0.2-2.4,0.4-3.7,0.7l0,0
			c-0.8,0.2-1.6,0.3-2.5,0.5c-0.6,0.1-1.2,0.3-1.8,0.4c-0.5,0.1-1,0.2-1.6,0.3c-0.9,0.2-1.8,0.4-2.7,0.6c-1.3,0.3-2.5,0.6-3.8,0.9
			c-0.5,0.1-1.1,0.3-1.6,0.4c-0.7,0.2-1.3,0.3-2,0.5s-1.5,0.4-2.2,0.6c-0.4,0.1-0.8,0.2-1.2,0.3c-0.9,0.2-1.8,0.5-2.7,0.7
			c-5.8,1.6-11.5,3.3-17.1,4.9c-0.7,0.2-1.4,0.4-2.1,0.6l0,0c-0.1,0-0.2,0.1-0.3,0.1c-6.2,1.9-12.4,3.7-18.6,5.5l0,0l0,0
			c-1,0.3-2.1,0.6-3.1,0.9c-0.3,0.1-0.6,0.2-0.9,0.2c-0.8,0.2-1.7,0.5-2.5,0.7c-0.6,0.2-1.2,0.3-1.8,0.5s-1.2,0.3-1.8,0.5
			c-1.2,0.3-2.5,0.6-3.7,1c-2.6,0.7-5.3,1.3-7.9,1.9l0,0l0,0c-5.9,1.3-11.9,2.4-17.9,3.1l0,0l0,0c-1.8,0.2-3.6,0.4-5.4,0.5l0,0l0,0
			c-0.4,0-0.9,0.1-1.3,0.1c-2.4,0.2-4.8,0.2-7.2,0.2s-4.8-0.1-7.1-0.3l0,0c-0.1,0-0.2,0-0.3,0c-0.3,0-0.6,0-0.9-0.1
			c-0.2,0-0.4,0-0.7-0.1c-0.3,0-0.6-0.1-0.9-0.1c-0.2,0-0.4,0-0.7-0.1c-0.3,0-0.6-0.1-0.9-0.1c-0.2,0-0.4-0.1-0.7-0.1
			c-0.3,0-0.6-0.1-0.9-0.1c-0.1,0-0.2,0-0.2,0l0,0c-4-0.6-7.9-1.5-11.8-2.7c-2-0.6-4.1-1.3-6.1-2.2c-0.4-0.2-0.9-0.4-1.3-0.5
			c-0.3-0.1-0.5-0.2-0.8-0.3c-0.4-0.2-0.7-0.3-1.1-0.5c-0.2-0.1-0.5-0.2-0.7-0.3c-0.4-0.2-0.8-0.4-1.2-0.6c-0.2-0.1-0.3-0.2-0.5-0.2
			c-0.5-0.3-1-0.5-1.5-0.8c-0.1-0.1-0.2-0.1-0.4-0.2c-0.5-0.3-1.1-0.6-1.6-0.9c-0.3-0.2-0.6-0.3-0.9-0.5c-0.1,0-0.1-0.1-0.2-0.1l0,0
			c-2.1-1.2-4.1-2.5-6-3.8c-1.1-0.8-2.3-1.6-3.4-2.4c-1.1-0.9-2.2-1.7-3.4-2.6l0,0c-0.2-0.1-0.4-0.1-0.5,0c-0.2,0.2-0.2,0.4-0.1,0.6
			c6.3,7.8,14.4,14.6,23.6,19.4v24.3h17.9V58.4c1,0.2,1.9,0.4,2.9,0.6c5.8,1.1,11.8,1.6,17.7,1.6c2.1,0,4.3,0,6.4-0.1v15.6h17.9
			V58.5c3.5-0.6,7-1.3,10.5-2c2.1-0.5,4.2-1,6.3-1.5l-7.9,21.2h17.8l4.6-13.2H217l4.8,14.1l17.6-1.8l-12.9-34.1
			c4.1-1.2,8.1-2.4,12.2-3.4c3.2-0.8,6.4-1.6,9.6-2.4v40.7h17.9v-21h11.9l10.8,21h20.7l-14.7-26.3c2.8-1.9,5-4.3,6.6-7.3
			c1.3-2.4,2.1-5.2,2.3-8.2c5.1,1.5,10.1,3.6,14.9,6.2c1.2,0.7,2.4,1.3,3.6,2.1s2.4,1.5,3.5,2.3s2.3,1.6,3.4,2.5s2.2,1.7,3.3,2.6
			l0,0c0.2,0.1,0.4,0.1,0.5,0C333.2,49.8,333.2,49.5,333.1,49.3z M201.2,48.9c1.7-0.5,3.4-1,5.1-1.5c1.5-0.5,3-0.9,4.5-1.4l1.1,2.9
			H201.2z M282.7,38.6c-1.8,1.7-4,2.5-6.8,2.5h-9.8v-8.9c1.7-0.2,3.3-0.4,5-0.5c4.7-0.4,9.5-0.6,14.2-0.3c0,0.3,0,0.6,0,0.9
			C285.3,34.8,284.5,36.9,282.7,38.6z"/>
		
			<linearGradient id="SVGID_3_" gradientUnits="userSpaceOnUse" x1="131.3222" y1="40.4145" x2="131.3222" y2="77.0872" gradientTransform="matrix(1 0 0 -1 0 86.8289)">
			<stop  offset="0" style="stop-color:#15A6FF;stop-opacity:0"/>
			<stop  offset="1" style="stop-color:#15A6FF"/>
		</linearGradient>
		<path class="st4" d="M107.5,42.9c3.3,1,6.7,1.8,10.3,2.4v-1.4l1.3,1.6c3.8,0.5,7.8,0.8,11.9,0.8c2.2,0,4.5-0.1,6.8-0.2
			c1.9-0.1,3.9-0.3,5.8-0.5l1.2-1.6v1.5c5.5-0.7,11.4-1.7,17.9-3.2V9.4h-11.9l-18.5,25.4L112.2,9.4H99.9v30.7
			C102.4,41.1,104.9,42.1,107.5,42.9z"/>
	</g>
</g>
</svg>
