<svg id="f30e6f93-ae7e-49a8-a4bd-5ff12efb187a" data-name="Viñetas" xmlns="http://www.w3.org/2000/svg" viewBox="0 0 326.53 343.75"><g id="fdf8e051-b70f-46d7-afcd-40f27de4262c" data-name="Tortuga"><path d="M479,446l-.73-.88a7,7,0,0,1-3.53,3.65h-.13a4.07,4.07,0,0,1-1-.22c-.08,1.58-.13,3.46-.11,5.45,0,5.39,2.18,6,3.94,5.7s2.41-2.8,3.14-5.61a20.33,20.33,0,0,0,.11-6.27A12.17,12.17,0,0,1,479,446Z" transform="translate(-273.59 -118.49)" style="fill:#333"/><path d="M552,429.06c-4.4-11.47-12.78-34.55-16.36-52.78-2.57,5.84-6.13,13.86-7,15.28a7.36,7.36,0,0,1-3.77,3c-3.15,6.75-8.57,17.75-10.65,18.24a7.1,7.1,0,0,1-4.35-.72c-1.36,3.32-6.32,15.36-7.36,17.06a4.38,4.38,0,0,1-3,1.88,6.44,6.44,0,0,0-2.6,1.18,56.17,56.17,0,0,1,5.35,7.22,91.86,91.86,0,0,0,8,9.26c4.79,3.56,12,8.75,13.18,9.23,9.33,4.44,14.43,6.34,28.59,1.34,1.11-.4,2.13-1.79,2.87-3.91,2.29-6.59,1.67-18.94-2.87-26.14Z" transform="translate(-273.59 -118.49)" style="fill:#333"/><path d="M418,414.9c-1-1.57-2-3.06-2.83-3.27-2.3-.63-12.33-7.93-14.54-12.38-.29-.57-.55-1.11-.8-1.63-1.55-3.2-2.49-5.13-4.36-6.05-1.48-.74-6.43-4.85-10.57-9.07-1.95,1.06-4,2.08-6.26,3.17-3.84,1.88-8.2,4-13.22,7l-.14.07c-8.34,2.93-16.81,12.58-19.19,19.41-.78,2.25-.84,4-.18,5.06,8.3,13.2,13.67,14.94,24.08,17.33,1.29.36,10.52.81,16.7,1,1.64,0,16.34-1.52,17.5-2a67.87,67.87,0,0,0,19.89-11.89,10,10,0,0,1-1.47-1.07A27.59,27.59,0,0,1,418,414.9Z" transform="translate(-273.59 -118.49)" style="fill:#333"/><path d="M599.12,142.55a8.76,8.76,0,0,0-3.54-2.22,62.58,62.58,0,0,0-23.64-4.44,73.28,73.28,0,0,0-21.22,3.18c-6.46,2-13.14,4-19,7.47a85.66,85.66,0,0,0-10.37,7.55c-10.7,8.62-22.82,18.39-32,30.18-.56.71-1.08,1.42-1.6,2.12,1.61,2,3,3.88,3.55,4.57,1.73.32,9.52,2.08,14.25,8.23s9.3,11,10,11.74a61.53,61.53,0,0,1,6.75,4.23c1.9-3.32,5.05-6.09,8.24-8.69l15.75-12.8c2.89-2.35,5.42-5.88,7.87-9.3,1.33-1.85,2.58-3.61,3.89-5.18.34-.4.67-.82,1-1.23a31.13,31.13,0,0,1,3.07-3.47c2.16-2,5.07-2.42,7.88-2.81a19.28,19.28,0,0,0,5.47-1.3,57.21,57.21,0,0,0,21.76-17.74C598.34,151.11,601.82,145.88,599.12,142.55Z" transform="translate(-273.59 -118.49)" style="fill:#333"/><path d="M347.23,256.41A96.68,96.68,0,0,0,350,244.63c.64-3.55.93-5.18,2.23-5.49,1.11-.26,1.37-.33,1.4-3.21,0-3.24,2-9.37,4.12-14.33-7.78.05-16.07,2.74-25.25,8.19-12.83,7.62-24,18.43-33.95,28a88.47,88.47,0,0,0-8.78,9.35c-4.17,5.42-7,11.79-9.79,18-6.51,14.54-8.1,30.81-4.36,44.65a8.65,8.65,0,0,0,1.76,3.8c3,3.1,8.59.3,10.24-.63a57.21,57.21,0,0,0,20.33-19.38,19.38,19.38,0,0,0,2-5.26c.74-2.74,1.5-5.57,3.78-7.47a34.18,34.18,0,0,1,3.83-2.62l1.34-.83c1.72-1.1,3.62-2.13,5.63-3.22,3.69-2,7.51-4.07,10.21-6.64l11.58-11.07A45.14,45.14,0,0,1,347.23,256.41Z" transform="translate(-273.59 -118.49)" style="fill:#333"/><path d="M387.05,139.91V140l0,.11c-.88,5,3.47,18.24,5.81,25.37.51,1.57.94,2.87,1.2,3.74.45,1.52.91,3,1.33,4.59a39.23,39.23,0,0,1,6.27-2.45l6.45-1.54,32.8-5.3c-1.84-2.92-3.42-6-5-9.1-.44-.87-.88-1.74-1.33-2.6s-1-2-1.73-3.52c-3.28-6.75-9.37-19.31-13.47-22.27l-.16-.16a8.71,8.71,0,0,1-2-4.43,3.89,3.89,0,0,0-1.69-2.87c-2.47-2-5.5-.9-8.41.6l-.12,0c-2.89,1-3.7.5-5-.5a10.88,10.88,0,0,0-2-1.25,22.7,22.7,0,0,0-5,2,11.64,11.64,0,0,0-.54,2.28c-.23,1.62-.49,2.53-3.25,3.84l-.11,0c-3.14.94-6.1,2.25-6.46,5.41a3.85,3.85,0,0,0,.77,3.24A8.69,8.69,0,0,1,387.05,139.91Z" transform="translate(-273.59 -118.49)" style="fill:#333"/><path d="M496.09,207.24l14,7.18,3.89-2.73c-1.31-1.41-5.54-6-9.77-11.52-4.84-6.28-13.46-7.66-13.55-7.67l-.24,0-5.13,2.93Z" transform="translate(-273.59 -118.49)" style="fill:#333"/><path d="M512.66,233.77l12.5,8.53,7-3c-.77-2.31-4.7-14-5.8-17.65-.92-3-8.55-7.65-11.56-9.27l-4.09,2.86Z" transform="translate(-273.59 -118.49)" style="fill:#333"/><path d="M507,296.54c-1.61,0-4.36-.12-7.68-.27-7-.3-16.54-.73-20.44-.15-.58.84-3.19,4.58-5.54,7.29a22.11,22.11,0,0,0-5.7,11.14c-.19,1.24-.43,2.34-.64,3.31-.63,2.88-.87,4.31.35,5.32A65.49,65.49,0,0,1,472.5,329c2.47,3,5.26,6.34,6.23,6.94.09.06,7.79,5.22,9,7.59,1.55-.29,7.33-1.37,12.65-2.33,4.18-.75,11.9,1.57,18.71,3.62,3.45,1.05,6.71,2,9.25,2.54l8.4-17.83,1-28.84-4.34-9.77c-5,3.2-22.67,5.43-25.42,5.59C507.71,296.54,507.4,296.54,507,296.54Z" transform="translate(-273.59 -118.49)" style="fill:#333"/><path d="M469.87,189.44l14.63,5.29,5.31-3a94.2,94.2,0,0,0-6.81-8.25c-2.2-2.19-11.48-5-14.87-5.87l-.25-.07-4.81,2C464.16,181.29,467.82,186.54,469.87,189.44Z" transform="translate(-273.59 -118.49)" style="fill:#333"/><path d="M462.45,178.75l4.92-2.07c-.66-1.28-2.69-4.87-5.25-6.45s-13.31-3.49-18.28-4.28c.69,2.39,2,5.94,2.3,6.85C450.72,174.2,460.44,177.26,462.45,178.75Z" transform="translate(-273.59 -118.49)" style="fill:#333"/><path d="M496.17,241.28a34.43,34.43,0,0,0-5.63,1.33c-3.68,1.52-14.59,2.12-21.81,2.52-1.25.06-2.38.13-3.36.19a17.24,17.24,0,0,0-5.44,6.47c-2.77,5.1-3.37,12.5-2.32,13.15,1.74,1.07,6,5.77,8.62,9.26a45,45,0,0,1,3.59,6.2c1.45,2.8,2.94,5.69,4.37,6.94,2.36,2.06,4.24,6.49,4.76,7.79,4.08-.55,13.12-.15,20.44.17,3.9.17,7.27.32,8.5.25,4.14-.25,21.15-2.74,25.16-5.58l-1.15-22.66-7.21-24.16-12.4-8.45C509,238.83,501.61,240.24,496.17,241.28Z" transform="translate(-273.59 -118.49)" style="fill:#333"/><path d="M429.59,225.67c-2.53,0-4.95-.14-5.87-.21-1,2.89-5.88,16.41-8.14,19.72a42.35,42.35,0,0,1-2.88,3.5c-1.43,1.64-4.41,5-4.07,5.7,0,0,.14.13.78.06A14.38,14.38,0,0,1,422.48,260c1.19,1.49,2.69,3,4.13,4.51,2.91,3,4.69,4.89,4.57,6.19,1.79.75,9.37,3.79,13.06,2.9,4-1,10.68-4.18,12.52-8.11-1.52-2-.05-9.78,2.31-14.13,1.75-3.23,2.62-4.25,5.8-6.87.37-.3.57-.57.55-.76,0-.47-1.18-1.12-2.29-1.75-2.43-1.39-5.77-3.3-6.79-7.26-.87-3.37-7.46-11-10.11-13.68-1.43.57-7.71,3.1-10.34,4A22.29,22.29,0,0,1,429.59,225.67Z" transform="translate(-273.59 -118.49)" style="fill:#333"/><path d="M445.11,172.82c-.48-1.32-1.68-4.72-2.3-6.95l-34.18,5.53a36.16,36.16,0,0,1-2.5,8.31Z" transform="translate(-273.59 -118.49)" style="fill:#333"/><path d="M423.84,224.49c1.85.13,9.22.54,11.72-.35s8.46-3.3,10.14-4c-.07-1.14,1.46-4.41,11.08-16.13,5.34-6.49,10.94-12.85,12.16-14.23-1.14-1.62-6.4-9.09-7-10.27-.6-.75-8.69-3.56-16.19-5.84l-40.24,7.11L388.36,191l-4.15,11.28c2,1,11,5.36,19.86,10C420.42,220.78,423.42,223.4,423.84,224.49Z" transform="translate(-273.59 -118.49)" style="fill:#333"/><path d="M444.46,274.52a7.41,7.41,0,0,1-1.75.18c-4.2,0-10.26-2.44-11.9-3.13a74.09,74.09,0,0,0-4.41,13.82l-.25,1.39c-.9,5.19-2.42,13.88-5,16.05-1.72,1.44-2,2.25-2.06,2.55,1,.52,4.89,2.62,8.11,3.93A23.15,23.15,0,0,1,437.75,317c.71,1,1.41,1.86,2,2.62,1.63,2,2.84,3.51,2.43,5.29a44.92,44.92,0,0,1,5.3,1c3.39.77,6.9,1.55,9.46.94,4.21-1,6.3-3.1,8.52-5.32l.08.07a14,14,0,0,1,.51-3.92c.2-.95.44-2,.63-3.25a23.1,23.1,0,0,1,5.92-11.63c2.28-2.63,4.83-6.27,5.46-7.17-.43-1.08-2.3-5.58-4.54-7.53-1.57-1.36-3-4.21-4.59-7.23a45.13,45.13,0,0,0-3.5-6,59.38,59.38,0,0,0-7.92-8.7C455.41,270.25,448.74,273.5,444.46,274.52Z" transform="translate(-273.59 -118.49)" style="fill:#333"/><path d="M446.71,220.12c2,2,9.54,10.33,10.57,14.32.92,3.57,4.05,5.36,6.33,6.66,1.57.89,2.7,1.54,2.78,2.52a1.34,1.34,0,0,1-.13.67l2.41-.14c7.16-.39,18-1,21.5-2.44a35.5,35.5,0,0,1,5.82-1.39c5.38-1,12.72-2.42,15.7-6.42l-2-18.6L495.43,208l-11.16-12.28-14.56-5.27C457.9,203.71,446.12,218.39,446.71,220.12Z" transform="translate(-273.59 -118.49)" style="fill:#333"/><path d="M454.88,328a36.19,36.19,0,0,1-7.58-1.18,43.2,43.2,0,0,0-5.41-1c-.46,1.29-1.2,4.34-2,7.58-1.34,5.53-2.26,9.24-2.9,10.28l-.59,1c-5,8-6.13,10.51-6.12,11.12.52.47,3.61,2.23,6.12,3.65a87.19,87.19,0,0,1,7.87,4.76c1.83,1.52,8.31,8,9.56,10.47l.24,0c2.77.69,5.17,1.28,8,.62.81-.2,1.75-.38,2.76-.58,2.79-.54,6-1.15,7.88-2.31l0,0c.45-3.25,2.82-9.67,3.67-11.63.55-1.27,3.22-5.36,5.81-9.3,2.15-3.29,4.59-7,4.74-7.56-.16-.93-6.28-5.71-8.7-7.2-1.11-.68-3.71-3.82-6.47-7.14a66.92,66.92,0,0,0-5-5.71,3.18,3.18,0,0,1-1-1.35c-2.17,2.17-4.36,4.18-8.59,5.19A10,10,0,0,1,454.88,328Z" transform="translate(-273.59 -118.49)" style="fill:#333"/><path d="M410.2,388.56c-1-.07-7.19-2.49-8.79-3.12l-4.57,5c1.94,1.25,3,3.36,4.48,6.43.24.51.51,1,.79,1.62,1.85,3.72,10.47,10.22,13.11,11.38l2.86-8.25C414.79,395.53,411,389,410.2,388.56Z" transform="translate(-273.59 -118.49)" style="fill:#333"/><path d="M371.79,328.55l-11.66-16.5-5.66,2.55a4.5,4.5,0,0,1,.35,2.44,42.63,42.63,0,0,0,.49,7.38c1.07,7.7,6.06,18.23,7.67,20.43l9-3.86Z" transform="translate(-273.59 -118.49)" style="fill:#333"/><path d="M457.72,420.57l1.46,18.86.11.07c2.2,2,13.53,7.25,15.15,7.63a6,6,0,0,0,2.47-3.09,1.67,1.67,0,0,1,.15-.38l-5.18-20.58C470.23,422.84,463,421.76,457.72,420.57Z" transform="translate(-273.59 -118.49)" style="fill:#333"/><path d="M398.88,377l-13.17-11.19L378.94,370l1.51,4.17c1.43,4,12.61,14.11,15.52,15.81l4.77-5.25Z" transform="translate(-273.59 -118.49)" style="fill:#333"/><path d="M380.84,354.21l-8.53-12.29-8.74,3.74c.91,1.4,1.49,3.44,2.51,7,.48,1.67,1.05,3.69,1.79,6.14,2.37,7.78,10.36,10.32,10.44,10.34l.06,0,6.78-4.25Z" transform="translate(-273.59 -118.49)" style="fill:#333"/><path d="M393,260.24c4.34-1.59,11.72-4.19,14.83-5.27a1.1,1.1,0,0,1-.09-.14c-.63-1.18,1.19-3.35,4.2-6.79,1.13-1.3,2.2-2.52,2.81-3.41,2.16-3.17,7.21-17.09,8.13-19.84-.33-1.95-20.4-12.64-39.23-21.73L370.76,214.9c-.19,1.46-1.48,10.94-3,14.7s-6.46,10-7.37,11.1c.28,2,2.39,17,3.15,20.58C366.64,261.4,387.92,262.12,393,260.24Z" transform="translate(-273.59 -118.49)" style="fill:#333"/><path d="M361,293.66a133.5,133.5,0,0,0-5-13.84L349,281c.37,1.8-.08,4-.61,6.5a41.6,41.6,0,0,0-.85,5.17c-.34,4.21,5,18.58,6.41,21.08l5.94-2.67C360.31,309.56,362.78,300,361,293.66Z" transform="translate(-273.59 -118.49)" style="fill:#333"/><path d="M383.18,202.19l4.17-11.31L381,188l-.24.06c-.71.25-3.28,3.41-5,5.51-1,1.21-2,2.47-2.92,3.52-2.81,3.23-6.66,11.43-7.6,15l4.92,2.05Z" transform="translate(-273.59 -118.49)" style="fill:#333"/><path d="M404.92,180.05a39.68,39.68,0,0,0,2.69-8.43L402,173c-2.08.5-8.5,3.14-10.23,5l-1.4,1.44c-1.6,1.63-3.79,3.86-4,5.16-.31,1.77-2.21,2.59-3.84,3l5.39,2.46Z" transform="translate(-273.59 -118.49)" style="fill:#333"/><path d="M366.89,229.24c1.37-3.47,2.62-12.37,2.88-14.27L365,213a7.22,7.22,0,0,1-2,3.09,15,15,0,0,0-3.2,4.75c-2.6,5.72-4.58,12.22-4.61,15.11,0,1.87-.18,3-.68,3.68l5.17.43C360.61,238.92,365.5,232.75,366.89,229.24Z" transform="translate(-273.59 -118.49)" style="fill:#333"/><path d="M362.71,261.87C362,259,359.87,243.7,359.49,241l-6.18-.51c-.22.08-.47.15-.74.22-.31.26-.67,2.26-1,4.2a97.93,97.93,0,0,1-2.77,12c-2.93,9.71-1.06,19.88,0,23.19l7.15-1.24C359,273.08,363.21,264,362.71,261.87Z" transform="translate(-273.59 -118.49)" style="fill:#333"/><path d="M452.71,419.05c-2.23-1.17-9.66-6.3-14.41-9.64l-4.16,13.2c1.52,1.33,16.6,14.53,18.64,16.05.69.52,1.29.39,2.29.13a6.71,6.71,0,0,1,1.72-.29,3.55,3.55,0,0,1,1.37.29l-1.44-18.46A19.74,19.74,0,0,1,452.71,419.05Z" transform="translate(-273.59 -118.49)" style="fill:#333"/><path d="M500.55,342.17c-5.51,1-11.52,2.12-12.8,2.35-.43.91-1.9,3.19-4.76,7.55-2.44,3.73-5.21,8-5.73,9.16-1.2,2.77-3.82,10.31-3.66,12.35s10.56,12.44,12.55,13.69a27.61,27.61,0,0,1,9.9,11.05l4.26-1,15.53-13.5-.6-7.06,14-12-1.13-16.37c-2.59-.53-5.88-1.51-9.35-2.56C512.1,343.75,504.5,341.45,500.55,342.17Z" transform="translate(-273.59 -118.49)" style="fill:#333"/><path d="M534,290.1l4.5,10,7.29.64c.52-1.33,3.09-8.18,3.34-12.23.16-2.57-2-9.59-3.67-14.71a56.16,56.16,0,0,1-2-7.1l-10.59.93Z" transform="translate(-273.59 -118.49)" style="fill:#333"/><path d="M529.11,348l1.16,16.6,7,4.17c1.12-2,5-8.89,6.06-10.55.77-1.4,2.42-17.41,3.31-27.53l-9.08-.55Z" transform="translate(-273.59 -118.49)" style="fill:#333"/><path d="M516.25,377.15l.57,6.67,7.44,9.25a5.73,5.73,0,0,0,3-2.36c1-1.68,6.59-14.3,9.52-21l-6.94-4.15Z" transform="translate(-273.59 -118.49)" style="fill:#333"/><path d="M446.67,386.58c.7-.74,1.37-1.46,2-2.11,2.3-2.55,5.17-7.4,4.43-9.21s-7.26-8.55-9.4-10.32a88.81,88.81,0,0,0-7.74-4.66c-3.5-2-5.36-3.07-6.1-3.64a65.36,65.36,0,0,1-8.32,4.07c-2.29.91-6.14,4.11-10.22,7.51a102.72,102.72,0,0,1-11.41,8.69l1.82,7.59c3.07,1.21,7.95,3.05,8.68,3.12.9.07,3.79,4.64,8.57,13.58l15.26,4.36c1-1.8,6.31-11,7.31-12.82A40.36,40.36,0,0,1,446.67,386.58Z" transform="translate(-273.59 -118.49)" style="fill:#333"/><path d="M537.68,329.2l9.11.55a70.78,70.78,0,0,1,2.89-6.77c.71-1.36-1.43-11.82-3.93-21.23l-7.08-.62Z" transform="translate(-273.59 -118.49)" style="fill:#333"/><path d="M496.05,399.32c-.78,1-5.68,7-9.74,11.88l10,19.44a8.66,8.66,0,0,1,2.78-1.18c1-.28,1.6-.46,2-1.16.92-1.5,5.75-13.18,7.56-17.6l-8.37-12.4Z" transform="translate(-273.59 -118.49)" style="fill:#333"/><path d="M501.19,397.83,509.38,410l.51.31c.63.38,2.57,1.3,4,1,1.18-.61,5.84-9.38,9.65-17.55l-7.22-9Z" transform="translate(-273.59 -118.49)" style="fill:#333"/><path d="M485.63,388.1c-1.85-1.16-12.78-11.77-13-14.43v-.1a30.87,30.87,0,0,1-7.65,2.14c-1,.19-1.92.37-2.72.56a11.19,11.19,0,0,1-2.71.32,22.28,22.28,0,0,1-5.42-.86c.15,2.71-2.88,7.29-4.78,9.4-.59.65-1.27,1.37-2,2.12a40.21,40.21,0,0,0-5,5.95c-1,1.84-6.15,10.81-7.27,12.77,2.3,1.63,15.11,10.67,18.06,12.22s17.19,3.68,19,3.95c1.21-.84,9.15-6.42,13.21-11.31s8.86-10.8,9.84-12A27,27,0,0,0,485.63,388.1Z" transform="translate(-273.59 -118.49)" style="fill:#333"/><path d="M403,316.32c4.2-4.66,13.36-9.9,15.14-10.9,0-.59.43-1.67,2.41-3.33,2.31-1.95,3.85-10.75,4.67-15.48l.25-1.4c.81-4.52,3.69-12.82,4.74-14.52.43-.71-2.29-3.5-4.27-5.53-1.46-1.5-3-3.05-4.19-4.58a13.44,13.44,0,0,0-12.15-5.18c-.82.29-10.85,3.79-16.2,5.76-2.92,1.07-10.59,1.33-17.47,1.33-5.53,0-10.54-.17-12.19-.23,0,3.82-5.85,14.93-7,17a134,134,0,0,1,5.13,14.08c1.93,6.65-.59,16.32-1.05,18l11.66,16.5C380.39,326.27,398.46,321.32,403,316.32Z" transform="translate(-273.59 -118.49)" style="fill:#333"/><path d="M434.24,406.56l-15.32-4.35-2.79,8.05c1.13.58,2.08,2,3.25,3.75a26.54,26.54,0,0,0,4.33,5.36c3.2,2.8,8.4,2.93,9.5,2.92l4.25-13.46Z" transform="translate(-273.59 -118.49)" style="fill:#333"/><path d="M472.83,422.86l5.09,20.23c.77-.06,1.4.71,2.33,1.87a9.62,9.62,0,0,0,1.62,1.74c.82-.57,4.59-5,7.37-8.29s5.15-6.06,6.32-7.14L485.63,412C481.45,416.78,474.31,421.83,472.83,422.86Z" transform="translate(-273.59 -118.49)" style="fill:#333"/><path d="M421.15,359.8a63.48,63.48,0,0,0,8.17-4c0-1,1.17-3.53,6.26-11.66l.59-.94c.6-1,1.76-5.78,2.79-10a81.85,81.85,0,0,1,2.16-8.06c.63-1.46-.23-2.62-2.1-4.91-.62-.77-1.33-1.64-2.06-2.66a22.24,22.24,0,0,0-10.12-7.36c-3.27-1.33-7.21-3.43-8.2-4-1.57.88-10.86,6.2-14.95,10.73-4.65,5.16-22.87,10.2-30.92,11.82l.2,12.36,8.76,12.65,4.43,11.06,13.2,11.22a101.13,101.13,0,0,0,11.3-8.61C414.79,364,418.7,360.77,421.15,359.8Z" transform="translate(-273.59 -118.49)" style="fill:#333"/><path d="M532.72,266.71l10.84-.95a42,42,0,0,0-1.51-6.16c-.81-2.83-1.74-6-2.28-8.84-1.06-5.43-6.4-10-7.16-10.63l-6.91,3Z" transform="translate(-273.59 -118.49)" style="fill:#333"/></g></svg>